<svg id="Camada_1" data-name="Camada 1" xmlns="http://www.w3.org/2000/svg" viewBox="0 0 500 168.63"><defs><style>.cls-1{fill:#fff;}</style></defs><title>Logo ABQRS -  Branco Horizontal</title><path class="cls-1" d="M116,59.13,83.52,43.05l-.46-.33a30.1,30.1,0,0,0-10.22-7.91,20.82,20.82,0,0,0-8.38-2.34h-.78V29.39A1.69,1.69,0,0,0,62,27.7h-2.5a1.69,1.69,0,0,0-1.69,1.69A3.26,3.26,0,0,1,55,32.6c-6.07.78-11.85,4.67-15.23,8a29.3,29.3,0,1,0,50,20.72,30.44,30.44,0,0,0-.3-4.27A28.69,28.69,0,0,0,88.5,53l-1-3.32,28.3,9.89ZM88,68.81a22.76,22.76,0,0,1-7.83,13,30.39,30.39,0,0,1-19.73,7,30.45,30.45,0,0,1-19.75-7A23.52,23.52,0,0,1,33.76,72a2.45,2.45,0,0,1,2.35-3.22Z"/><path class="cls-1" d="M134.71,57.57,102.18,1.24A2.45,2.45,0,0,0,100,0H35a2.48,2.48,0,0,0-2.14,1.24L.33,57.57A2.48,2.48,0,0,0,.33,60l32.52,56.34A2.49,2.49,0,0,0,35,117.61h42.1a2.47,2.47,0,0,1,2.14,3.71l-12.68,22a2.47,2.47,0,0,0,2.14,3.7H83.07a2.48,2.48,0,0,0,2.14-1.23l16.25-28.15h0L134.71,60A2.48,2.48,0,0,0,134.71,57.57Zm-17,6.37-1.54-.55-23.48-8.2c.09.46.17.93.24,1.4a33.21,33.21,0,0,1,.35,4.78A32.83,32.83,0,1,1,54.11,29.14V23.36H67.37v4.57a1.72,1.72,0,0,0,1.34,1.65A32.81,32.81,0,0,1,85.2,39.8a1.83,1.83,0,0,0,.49.39l34.93,17.28Z"/><path class="cls-1" d="M219.64,143.75,192.1,60.37a2.47,2.47,0,0,0-2.35-1.7H177.89a2.48,2.48,0,0,0-2.35,1.7l-27.67,83.37a2.47,2.47,0,0,0,2.34,3.25h9.45a2.46,2.46,0,0,0,2.36-1.73L168,126a2.48,2.48,0,0,1,2.36-1.74h24.86a2.47,2.47,0,0,1,2.36,1.76l5.78,19.22a2.45,2.45,0,0,0,2.36,1.76H217.3A2.46,2.46,0,0,0,219.64,143.75Zm-28.37-29.49H175a2.47,2.47,0,0,1-2.36-3.2l8.2-26.86a56.8,56.8,0,0,0,1.92-7.53c.36-1.85.5-2.78.5-2.78h.22l.42,2.78a71.86,71.86,0,0,0,1.85,7.53l7.9,26.89A2.47,2.47,0,0,1,191.27,114.26Zm100.61,7.88a21.21,21.21,0,0,0-1.21-6.89,19.79,19.79,0,0,0-3.21-5.61,23.31,23.31,0,0,0-4.41-4.41,31.32,31.32,0,0,0-5.05-3.06,24.15,24.15,0,0,0-5-1.7v-.22a22.1,22.1,0,0,0,5.56-2.12,19,19,0,0,0,5.19-3.84,18.3,18.3,0,0,0,3.78-5.76A19.76,19.76,0,0,0,289,80.86a21,21,0,0,0-1.85-8.81,20.16,20.16,0,0,0-5.77-7,28.46,28.46,0,0,0-9.68-4.61,48.16,48.16,0,0,0-13.59-1.71,70.34,70.34,0,0,0-9.75.64A63.13,63.13,0,0,0,240.06,61a35.56,35.56,0,0,0-4.88,1.76,2.46,2.46,0,0,0-1.45,2.26v75.3a2.42,2.42,0,0,0,1.37,2.22,39.25,39.25,0,0,0,9.44,2.86,74.16,74.16,0,0,0,14.53,1.28,59.61,59.61,0,0,0,13.37-1.42,31.4,31.4,0,0,0,10.4-4.47,20.94,20.94,0,0,0,6.62-7.68,25.43,25.43,0,0,0,2.42-11M273.8,81.86a16.1,16.1,0,0,1-1.93,8.59,11.41,11.41,0,0,1-6.33,5c-3,1.14-7,1.63-12,1.49L251,96.91a2.46,2.46,0,0,1-2.4-2.47V71a2.49,2.49,0,0,1,1.86-2.4c.81-.21,1.63-.39,2.44-.55l.22,0a38.49,38.49,0,0,1,4.95-.34c5.19,0,9.11,1.21,11.74,3.56s4,5.89,4,10.66m2.21,40a15.86,15.86,0,0,1-2.21,8.88,13,13,0,0,1-6.13,4.83,25.57,25.57,0,0,1-9.1,1.49,30.54,30.54,0,0,1-5.48-.43,26,26,0,0,1-2.72-.59,2.46,2.46,0,0,1-1.77-2.38V107.13a2.47,2.47,0,0,1,2.4-2.47l2.51-.07a36.37,36.37,0,0,1,13,1.63,13.49,13.49,0,0,1,7.26,5.83,19,19,0,0,1,2.21,9.81m91.53-19.12a87.54,87.54,0,0,0-1.07-13.9,55,55,0,0,0-3.57-12,31.64,31.64,0,0,0-6.21-9.55A25.69,25.69,0,0,0,347.62,61a34.21,34.21,0,0,0-24.56,0A26.43,26.43,0,0,0,314,67.24a33.41,33.41,0,0,0-6.28,9.55,51.45,51.45,0,0,0-3.56,12,84.52,84.52,0,0,0,0,27.79,52,52,0,0,0,3.56,12.12,33,33,0,0,0,6.28,9.48,26.43,26.43,0,0,0,9.07,6.27,33,33,0,0,0,12.28,2.28,26.33,26.33,0,0,0,3.43-.22c.55-.07,1.13-.16,1.75-.28a2.48,2.48,0,0,1,2.69,1.31L353,167.26a2.46,2.46,0,0,0,3.85.74l7.41-6.61a2.48,2.48,0,0,0,.27-3.4l-11.14-13.75a2.45,2.45,0,0,1,.32-3.42,30.67,30.67,0,0,0,7.23-8.65,44.71,44.71,0,0,0,5-13.47,72.27,72.27,0,0,0,1.57-16M351.4,102a81.89,81.89,0,0,1-.36,9.52,56.17,56.17,0,0,1-1.35,8.88,28.41,28.41,0,0,1-2.84,7.53,15.5,15.5,0,0,1-4.63,5.12,13.56,13.56,0,0,1-7,1.92,13.18,13.18,0,0,1-7-1.92,14.87,14.87,0,0,1-4.7-5.12,28.72,28.72,0,0,1-2.78-7.53,58.44,58.44,0,0,1-1.42-8.88c-.21-3.2-.36-6.32-.36-9.52s.15-6.39.43-9.52a56,56,0,0,1,1.43-8.88,29.58,29.58,0,0,1,2.84-7.46,14,14,0,0,1,4.7-5,11.79,11.79,0,0,1,6.83-1.92,12.22,12.22,0,0,1,6.91,1.92,13.87,13.87,0,0,1,4.63,5,25.08,25.08,0,0,1,2.84,7.46A56,56,0,0,1,351,92.44a81.31,81.31,0,0,1,.36,9.52m83.22,45a2.47,2.47,0,0,0,2.05-3.85l-23.39-34.73v-.29a28.76,28.76,0,0,0,12.23-3.4,21.8,21.8,0,0,0,8.11-8,22.83,22.83,0,0,0,3-11.63,27.09,27.09,0,0,0-3.48-14.09,22.7,22.7,0,0,0-10.71-9.11c-4.78-2.16-10.72-3.25-17.95-3.25a59.93,59.93,0,0,0-13.61,1.45,44.19,44.19,0,0,0-8.79,2.8,2.41,2.41,0,0,0-1.42,2.23v79.35A2.47,2.47,0,0,0,383.1,147H394a2.46,2.46,0,0,0,2.47-2.47v-37h.22l24,38.29a2.45,2.45,0,0,0,2.1,1.16ZM421.19,85.4a21.76,21.76,0,0,1-2,9.81,14,14,0,0,1-6.06,6.11,21.29,21.29,0,0,1-10.1,2.13c-1.21,0-2.35-.07-3.49-.14a9.53,9.53,0,0,1-2.35-.5V70.94a2.5,2.5,0,0,1,1.8-2.39,13,13,0,0,1,1.54-.34,21.25,21.25,0,0,1,4.49-.43,19.39,19.39,0,0,1,9.32,1.93,11.38,11.38,0,0,1,5.27,5.82,25,25,0,0,1,1.57,9.87M500,120.65a34.09,34.09,0,0,0-.64-6.39,22.41,22.41,0,0,0-2.71-6.4,23.65,23.65,0,0,0-5.83-6.25,44.6,44.6,0,0,0-10.18-5.76A41.26,41.26,0,0,1,474,92.51a14.62,14.62,0,0,1-4.63-4.4,11.77,11.77,0,0,1-1.63-6.25,14.52,14.52,0,0,1,1.42-6.61,9.89,9.89,0,0,1,4.2-4.34,13.76,13.76,0,0,1,6.69-1.49,24.51,24.51,0,0,1,5.2.57,25,25,0,0,1,4.48,1.42l1.12.51a2.45,2.45,0,0,0,3.35-1.41l1.83-5.1a2.47,2.47,0,0,0-1.1-3,26.62,26.62,0,0,0-5.84-2.31,40,40,0,0,0-11.18-1.42,28,28,0,0,0-10.67,2,25.14,25.14,0,0,0-8.12,5.47,23.76,23.76,0,0,0-5.05,8,25.4,25.4,0,0,0-1.78,9.67,21.72,21.72,0,0,0,.78,6.32,20.91,20.91,0,0,0,2.78,6.25,25.68,25.68,0,0,0,5.41,5.83,38.34,38.34,0,0,0,8.68,5,34.57,34.57,0,0,1,7.69,4,13.82,13.82,0,0,1,4.34,4.62,11.66,11.66,0,0,1,1.28,5.75,14.58,14.58,0,0,1-1.64,7,12,12,0,0,1-4.69,4.54,15.7,15.7,0,0,1-7.33,1.63,31.49,31.49,0,0,1-6-.56,27.06,27.06,0,0,1-4.77-1.49l-1.11-.52a2.48,2.48,0,0,0-3.43,1.39L452.07,140a2.48,2.48,0,0,0,1.18,3,26,26,0,0,0,3.4,1.48,39.41,39.41,0,0,0,6.91,1.71,68.47,68.47,0,0,0,9,.56,30.31,30.31,0,0,0,11-1.91,25.55,25.55,0,0,0,8.68-5.47,23.19,23.19,0,0,0,5.69-8.25A27.72,27.72,0,0,0,500,120.65"/></svg>