<svg id="Camada_1" data-name="Camada 1" xmlns="http://www.w3.org/2000/svg" viewBox="0 0 420 475.88"><defs><style>.cls-1{fill:#333;}</style></defs><title>Acessibilidade - a-</title><path class="cls-1" d="M308,469.08l-10.46-49.46H295q-26,32.65-51.83,44.22t-64.51,11.58q-51.68,0-81-26.63T68.29,373q0-105.24,168.33-110.31l59-1.91V239.25q0-40.91-17.59-60.39t-56.27-19.5q-43.42,0-98.27,26.63l-16.17-40.26a247,247,0,0,1,56.27-21.87,243.84,243.84,0,0,1,61.34-7.93q62.13,0,92.09,27.58t30,88.45V469.08ZM189.07,432q49.14,0,77.19-26.95t28.06-75.45V298.21l-52.63,2.22q-62.76,2.22-90.5,19.49t-27.74,53.74q0,28.53,17.28,43.43T189.07,432Z"/></svg>