<svg id="Camada_1" data-name="Camada 1" xmlns="http://www.w3.org/2000/svg" viewBox="0 0 500 475.88"><defs><style>.cls-1{fill:#333;}</style></defs><title>Acessibilidade - Contraste</title><path class="cls-1" d="M0,252.42v-29.3c.62-4.47,1.29-8.93,1.85-13.4,5.94-47.44,24.76-89.31,56.84-124.46,59-64.68,132.6-92.8,219.89-83.54C326.73,6.84,370.35,24,408.46,54.07c46.87,37,76.86,84.55,87.79,143.6,1.56,8.43,2.51,17,3.75,25.45v29.3c-1,7.7-1.75,15.47-3.17,23.1-13.59,73-53.51,127.63-116.87,165.38-34.23,20.4-71.67,31-111.34,34.05-22.66,1.74-45.15,1.23-67.48-3.19-48.07-9.52-90.31-30.64-126-64.21C37.5,372.22,13,329.42,3.8,278.36,2.24,269.76,1.25,261.07,0,252.42Zm262.92-226v422.8c1,0,1.8,0,2.57,0a227.08,227.08,0,0,0,92.71-25.89c39.67-20.85,70.63-50.73,91.95-90.17,20.31-37.58,27.73-77.8,22.51-120.24-5.05-41.05-21.78-77-48.52-108.29-26.26-30.74-58.91-52.31-96.91-65.8A217,217,0,0,0,262.92,26.45Z"/></svg>