<svg id="Camada_1" data-name="Camada 1" xmlns="http://www.w3.org/2000/svg" viewBox="0 0 300 387.5"><defs><style>.cls-1{fill:#0091e3;}</style></defs><title>blog - notebook blue</title><path class="cls-1" d="M73,391.75a6.25,6.25,0,0,1-6.25-6.25V10.5a6.25,6.25,0,0,1,12.5,0v375A6.25,6.25,0,0,1,73,391.75Z" transform="translate(-4.29 -4.25)"/><path class="cls-1" d="M298,391.75H29.29a25,25,0,0,1-25-25V29.25a25,25,0,0,1,25-25H298a6.25,6.25,0,0,1,6.25,6.25v375A6.25,6.25,0,0,1,298,391.75ZM29.29,16.75a12.52,12.52,0,0,0-12.5,12.5v337.5a12.52,12.52,0,0,0,12.5,12.5h262.5V16.75Z" transform="translate(-4.29 -4.25)"/><path class="cls-1" d="M235.54,141.75h-100a6.25,6.25,0,0,1-6.25-6.25v-50a6.25,6.25,0,0,1,6.25-6.25h100a6.25,6.25,0,0,1,6.25,6.25v50A6.25,6.25,0,0,1,235.54,141.75Zm-93.75-12.5h87.5V91.75h-87.5Z" transform="translate(-4.29 -4.25)"/></svg>