<svg id="Layer_1" data-name="Layer 1" xmlns="http://www.w3.org/2000/svg" viewBox="0 0 512 512"><defs><style>.cls-1{fill:#fc4343;}</style></defs><title>erro formulario red</title><path class="cls-1" d="M505.4,406.39,295.39,58.1a46,46,0,0,0-78.78,0L6.59,406.39A46,46,0,0,0,46,476.14H466a46,46,0,0,0,39.39-69.75Zm-28.36,30a12.69,12.69,0,0,1-11,6.44H46a12.67,12.67,0,0,1-10.85-19.2l210-348.29a12.65,12.65,0,0,1,21.68,0l210,348.29A12.69,12.69,0,0,1,477,436.37Z"/><path class="cls-1" d="M256.15,173c-12.68,0-22.57,6.8-22.57,18.86,0,36.8,4.33,89.69,4.33,126.49,0,9.59,8.35,13.61,18.24,13.61,7.43,0,17.94-4,17.94-13.61,0-36.8,4.33-89.69,4.33-126.49C278.42,179.81,268.22,173,256.15,173Z"/><path class="cls-1" d="M256.46,353.31a23.81,23.81,0,1,0,0,47.62c12.68,0,23.51-11.13,23.51-23.81C280,364.13,269.14,353.31,256.46,353.31Z"/></svg>