<svg id="Camada_1" data-name="Camada 1" xmlns="http://www.w3.org/2000/svg" viewBox="0 0 512 512"><defs><style>.cls-1{fill:#333;}</style></defs><title>Menu - search grey</title><path class="cls-1" d="M204.8,383.8a175.79,175.79,0,0,0,114.31-41.67L458,481a16.3,16.3,0,0,0,23,0,16.29,16.29,0,0,0,0-23L342.13,319.11A178.72,178.72,0,0,0,383.8,204.8c0-98.83-80.17-179-179-179-98.43,0-179,80.57-179,179C25.8,303.63,106.37,383.8,204.8,383.8Zm0-325.46c81,0,146.46,65.89,146.46,146.46A146.35,146.35,0,0,1,204.8,351.26c-81,0-146.46-65.89-146.46-146.46S124.23,58.34,204.8,58.34Z"/></svg>