<?xml version="1.0" encoding="utf-8"?>
<!-- Generator: Adobe Illustrator 23.0.0, SVG Export Plug-In . SVG Version: 6.00 Build 0)  -->
<svg version="1.1" id="Capa_1" xmlns="http://www.w3.org/2000/svg" xmlns:xlink="http://www.w3.org/1999/xlink" x="0px" y="0px"
	 viewBox="0 0 480 480" style="enable-background:new 0 0 480 480;" xml:space="preserve">
<style type="text/css">
	.st0{fill:url(#SVGID_1_);}
</style>
<g>
	<g>
		<linearGradient id="SVGID_1_" gradientUnits="userSpaceOnUse" x1="-7.021743e-04" y1="239.9768" x2="479.9529" y2="239.9768">
			<stop  offset="0" style="stop-color:#00A1FB"/>
			<stop  offset="0.59" style="stop-color:#0091E3"/>
			<stop  offset="1" style="stop-color:#0080C8"/>
		</linearGradient>
		<path class="st0" d="M477.6,102.4C477.6,102.3,477.6,102.3,477.6,102.4L477.6,102.4l-96-96c-1.5-1.6-3.6-2.4-5.8-2.3
			c-2.2,0-4.2,1-5.7,2.6l-29.7,32c-2.9,3.1-2.8,8,0.1,11l2.3,2.3L331,63.7L312.3,59c-16.7-4.1-34.4,0.9-46.4,13.2l-34,39.6
			l-39.5-39.5c-11.3-11.3-28-15.3-43.1-10.2c-0.9,0.3-1.7,0.8-2.5,1.4l-2.2,1.7l-5.3-5.3l10.3-10.3c3.1-3.1,3.1-8.2,0-11.3
			c0,0,0,0,0,0l-32-32c-3.1-3.1-8.2-3.1-11.3,0c0,0,0,0,0,0l-104,104c-3.1,3.1-3.1,8.2,0,11.3c0,0,0,0,0,0l32,32
			c3.1,3.1,8.2,3.1,11.3,0c0,0,0,0,0,0l3.6-3.6l19,19l-4.7,18.6c-4.1,16.5,0.7,33.9,12.7,45.9l67.8,69.7v62.5
			c0.1,14.3,8.2,27.4,20.9,34c6.8,3.6,11.1,10.7,11.1,18.5v1.7h-8c-4.4,0-8,3.6-8,8c0,0,0,0,0,0v40c0,4.4,3.6,8,8,8c0,0,0,0,0,0h152
			c4.4,0,8-3.6,8-8c0,0,0,0,0,0v-40c0-4.4-3.6-8-8-8c0,0,0,0,0,0h-8v-8l12.7-11.7c12.1-9.2,19.3-23.5,19.3-38.7v-93.7
			c9.5-1.1,18.3-5.5,25-12.3l42.3-45.9c9.9-9.9,13.4-24.5,8.9-37.8c-1.3-3.9,5.6-16.5,13.8-26.2c1.5,1.5,3.4,2.3,5.5,2.3h0.1
			c2.1,0,4.1-0.8,5.6-2.3l32.4-32C480.7,110.6,480.7,105.5,477.6,102.4z M40,136.7L19.3,116L112,23.3L132.7,44L40,136.7z M144.7,281
			l-57.1-58.7c-8-8.1-11.3-19.8-8.5-30.8l5.8-23c0.7-2.7-0.1-5.6-2.1-7.6l-22.2-22.2L128,71.3l10.3,10.3c2.9,2.9,7.5,3.1,10.7,0.6
			l6.6-5.3c9.1-2.5,18.8,0,25.5,6.7l44.1,44.1l-0.1,0.1c-3.6,3.3-6.2,7.4-7.7,12c-5-2.7-10.6-3.8-16.2-3.3
			c-14.5,1.9-25.3,14.4-25.1,29v83.7C160.1,252.5,147.7,265.1,144.7,281z M312,460H176v-24h136V460z M328,361.5
			c-0.1,10.5-5.1,20.3-13.5,26.4l-15.9,14.6c-1.6,1.5-2.6,3.7-2.6,5.9V420H192v-1.7c0-13.6-7.5-26.2-19.6-32.6
			c-7.5-3.8-12.3-11.5-12.4-19.9v-77.4c0-10.1,6.4-19.2,16-22.5V316h16V165.6c-0.2-6.4,4.4-12.1,10.7-13.1c3.4-0.4,6.8,0.8,9.3,3
			c2.5,2.3,4,5.5,4,8.9V284h16V148.4c0-6.6,5.4-12,12-12c0.4,0,0.7,0,1.1,0.1c6.5,1.1,11.1,6.8,10.9,13.4V284h16V172.4
			c0-6.6,5.4-12,12-12c0.4,0,0.7,0,1.1,0.1c6.5,1.1,11.1,6.8,10.9,13.4V284h16v-66.1c9.6,3.4,16,12.4,16,22.5V361.5z M405,176.9
			L405,176.9c2.5,7.6,0.5,16.1-5.3,21.7l-42.3,45.9c-3.7,3.7-8.3,6.2-13.4,7.2v-11.3c0-19-13.4-35.4-32-39.2v-27.4
			c0.3-14.9-10.7-27.5-25.5-29.3c-5-0.4-10.1,0.5-14.6,2.7c-0.9-13.8-11.6-25-25.4-26.7c-0.3,0-0.7,0-1,0l32.1-37.5
			c8.1-8,19.8-11.3,30.8-8.5l23,5.8c2.7,0.7,5.6-0.1,7.6-2.1l14.8-14.8l68.9,70.9C415.5,142.8,400.3,162.7,405,176.9z M439.7,128.6
			l-82.4-84.8l18.9-20.4l84.4,84.4L439.7,128.6z"/>
	</g>
</g>
</svg>
