<?xml version="1.0" encoding="utf-8"?>
<!-- Generator: Adobe Illustrator 23.0.0, SVG Export Plug-In . SVG Version: 6.00 Build 0)  -->
<svg version="1.1" id="Layer_1" xmlns="http://www.w3.org/2000/svg" xmlns:xlink="http://www.w3.org/1999/xlink" x="0px" y="0px"
	 viewBox="0 0 563.8 624" style="enable-background:new 0 0 563.8 624;" xml:space="preserve">
<style type="text/css">
	.st0{fill:url(#SVGID_1_);}
	.st1{fill:url(#SVGID_2_);}
	.st2{fill:url(#SVGID_3_);}
	.st3{fill:url(#SVGID_4_);}
	.st4{fill:url(#SVGID_5_);}
	.st5{fill:url(#SVGID_6_);}
	.st6{fill:url(#SVGID_7_);}
	.st7{fill:url(#SVGID_8_);}
</style>
<g transform="translate(1 1)">
	<g>
		<linearGradient id="SVGID_1_" gradientUnits="userSpaceOnUse" x1="108.7393" y1="362.15" x2="450.433" y2="362.15">
			<stop  offset="0" style="stop-color:#00A1FB"/>
			<stop  offset="0.59" style="stop-color:#0091E3"/>
			<stop  offset="1" style="stop-color:#0080C8"/>
		</linearGradient>
		<path class="st0" d="M449.4,261.4C440.8,180.3,376,115.5,295.8,107c-5.1,0-10.2-0.9-16.2-0.9s-11.1,0.9-16.2,0.9
			c-80.2,9.4-145.1,74.2-153.6,154.5c-6,54.6,13.7,108.4,52.9,145.9c21.3,20.5,35,44.4,40.1,67.4v100.7c0,5.1,3.4,8.5,8.5,8.5h12.8
			l15.4,20.5c6.8,8.5,16.2,13.7,27.3,13.7h25.6c11.1,0,21.3-5.1,27.3-13.7L335,584h12.8c5.1,0,8.5-3.4,8.5-8.5V474.8
			c4.3-23,18.8-46.9,40.1-67.4C435.7,368.9,455.3,316,449.4,261.4z M245.4,319.4h-17.1c-9.4,0-17.1-7.7-17.1-17.1
			s7.7-17.1,17.1-17.1s17.1,7.7,17.1,17.1V319.4z M296.6,464.5h-34.1v-128h34.1V464.5z M339.3,481.6v17.1h-25.6
			c-5.1,0-8.5,3.4-8.5,8.5c0,5.1,3.4,8.5,8.5,8.5h25.6v17.1h-51.2c-5.1,0-8.5,3.4-8.5,8.5s3.4,8.5,8.5,8.5h51.2v17.1h-8.5H228.4
			h-8.5v-17.1h25.6c5.1,0,8.5-3.4,8.5-8.5s-3.4-8.5-8.5-8.5h-25.6v-17.1H271c5.1,0,8.5-3.4,8.5-8.5s-3.4-8.5-8.5-8.5h-51.2v-17.1
			H339.3L339.3,481.6z M306,594.2c-3.4,4.3-8.5,6.8-13.7,6.8h-25.6c-5.1,0-10.2-2.6-13.7-6.8l-7.7-10.2h68.3L306,594.2z
			 M384.5,394.5c-21.3,21.3-36.7,45.2-43.5,70h-27.3v-128h17.1c18.8,0,34.1-15.4,34.1-34.1c0-18.8-15.4-34.1-34.1-34.1
			s-34.1,15.4-34.1,34.1v17.1h-34.1v-17.1c0-18.8-15.4-34.1-34.1-34.1s-34.1,15.4-34.1,34.1c0,18.8,15.4,34.1,34.1,34.1h17.1v128
			h-27.3c-6.8-24.7-22.2-48.6-43.5-70c-35.8-34.1-52.9-81.9-47.8-131.4c8.5-72.5,66.6-130.6,139.1-139.1c4.3,0,8.5-0.9,13.7-0.9
			s9.4,0.9,13.7,0.9c72.5,8.5,131.4,66.6,139.1,139.1C437.4,312.6,420.4,360.4,384.5,394.5z M313.7,319.4v-17.1
			c0-9.4,7.7-17.1,17.1-17.1s17.1,7.7,17.1,17.1s-7.7,17.1-17.1,17.1H313.7z"/>
	</g>
</g>
<g>
	<linearGradient id="SVGID_2_" gradientUnits="userSpaceOnUse" x1="134.1548" y1="67.8" x2="172.4077" y2="67.8">
		<stop  offset="0" style="stop-color:#00A1FB"/>
		<stop  offset="0.59" style="stop-color:#0091E3"/>
		<stop  offset="1" style="stop-color:#0080C8"/>
	</linearGradient>
	<path class="st1" d="M172,84.6c0.8-2.8,0.4-5.8-1-8.4L154.8,49c-1.5-2.7-3.8-4.5-6.6-5.3c-1-0.3-1.9-0.4-2.9-0.4
		c-1.9,0-3.8,0.5-5.5,1.4c-5.4,3-7.2,9.6-4.2,15l16.3,27.4c1.8,3.6,6.2,5.2,9.5,5.2c1.8,0,3.8-0.7,5.6-1.3
		C169.4,89.7,171.2,87.4,172,84.6z"/>
	<linearGradient id="SVGID_3_" gradientUnits="userSpaceOnUse" x1="35.524" y1="161" x2="84.7795" y2="161">
		<stop  offset="0" style="stop-color:#00A1FB"/>
		<stop  offset="0.59" style="stop-color:#0091E3"/>
		<stop  offset="1" style="stop-color:#0080C8"/>
	</linearGradient>
	<path class="st2" d="M79.2,159.6L79.2,159.6l-27.3-16.3c-1.7-0.9-3.6-1.4-5.4-1.4c-1,0-2,0.1-3,0.4c-2.8,0.8-5.1,2.7-6.5,5.2
		c-1.5,2.7-1.9,5.7-1,8.5c0.8,2.8,2.7,5.1,5.2,6.5L68.6,179c1.5,1.1,3.2,1.1,5.2,1.1c3.4,0,7.7-1.6,9.6-5.2
		C86.3,169.2,84.5,162.6,79.2,159.6z"/>
	<linearGradient id="SVGID_4_" gradientUnits="userSpaceOnUse" x1="-0.2" y1="287.7" x2="52.8" y2="287.7">
		<stop  offset="0" style="stop-color:#00A1FB"/>
		<stop  offset="0.59" style="stop-color:#0091E3"/>
		<stop  offset="1" style="stop-color:#0080C8"/>
	</linearGradient>
	<path class="st3" d="M52.8,287.7c0-6-4.7-10.7-10.7-10.7H10.5c-6,0-10.7,4.7-10.7,10.7s4.7,10.7,10.7,10.7h31.6
		C48.1,298.4,52.8,293.7,52.8,287.7z"/>
	<linearGradient id="SVGID_5_" gradientUnits="userSpaceOnUse" x1="269.7384" y1="34.25" x2="291.3" y2="34.25">
		<stop  offset="0" style="stop-color:#00A1FB"/>
		<stop  offset="0.59" style="stop-color:#0091E3"/>
		<stop  offset="1" style="stop-color:#0080C8"/>
	</linearGradient>
	<path class="st4" d="M280.5,7.7c-6,0-10.7,4.7-10.7,10.7v31.9c-0.3,2.6,0.5,5.1,2.3,7c2,2.2,5.1,3.5,8.5,3.5
		c6,0,10.7-4.7,10.7-10.7V18.4C291.2,12.4,286.5,7.7,280.5,7.7z"/>
	<linearGradient id="SVGID_6_" gradientUnits="userSpaceOnUse" x1="476.2923" y1="160.95" x2="525.6317" y2="160.95">
		<stop  offset="0" style="stop-color:#00A1FB"/>
		<stop  offset="0.59" style="stop-color:#0091E3"/>
		<stop  offset="1" style="stop-color:#0080C8"/>
	</linearGradient>
	<path class="st5" d="M525.2,156.2c0.8-2.8,0.5-5.8-1-8.5l0,0c-1.5-2.6-3.8-4.5-6.6-5.3c-1-0.3-1.9-0.4-2.9-0.4
		c-1.9,0-3.8,0.5-5.5,1.4L482,159.6c-2.7,1.5-4.5,3.8-5.3,6.6s-0.4,5.8,1,8.4l0.1,0.1c1.8,3.6,6.2,5.2,9.5,5.2
		c1.7,0,3.8-0.7,5.6-1.3l27.1-16.1C522.5,161.2,524.4,158.9,525.2,156.2z"/>
	<linearGradient id="SVGID_7_" gradientUnits="userSpaceOnUse" x1="508.3" y1="287.7" x2="561.3" y2="287.7">
		<stop  offset="0" style="stop-color:#00A1FB"/>
		<stop  offset="0.59" style="stop-color:#0091E3"/>
		<stop  offset="1" style="stop-color:#0080C8"/>
	</linearGradient>
	<path class="st6" d="M561.3,287.7c0-6-4.7-10.7-10.7-10.7H519c-6,0-10.7,4.7-10.7,10.7s4.7,10.7,10.7,10.7h31.6
		C556.6,298.4,561.3,293.7,561.3,287.7z"/>
	<linearGradient id="SVGID_8_" gradientUnits="userSpaceOnUse" x1="388.7683" y1="67.9342" x2="427.0452" y2="67.9342">
		<stop  offset="0" style="stop-color:#00A1FB"/>
		<stop  offset="0.59" style="stop-color:#0091E3"/>
		<stop  offset="1" style="stop-color:#0080C8"/>
	</linearGradient>
	<path class="st7" d="M421.4,44.8c-2.6-1.5-5.6-1.8-8.4-1s-5.1,2.7-6.6,5.3l-16.2,27.3c-1.5,2.7-1.8,5.7-1,8.5
		c0.8,2.6,2.6,4.9,5,6.3c1.8,0.6,3.8,1.3,5.6,1.3c3.4,0,7.8-1.6,9.5-5.2l0.1-0.2l16.2-27.3C428.6,54.3,426.8,47.7,421.4,44.8z"/>
</g>
</svg>
