<svg id="Camada_1" data-name="Camada 1" xmlns="http://www.w3.org/2000/svg" viewBox="0 0 512 512"><defs><style>.cls-1{fill:#333;}</style></defs><title>Menu - shopping cart grey</title><path class="cls-1" d="M165,331H437a15,15,0,0,0,14.42-10.88l60-210A15,15,0,0,0,497,91H130.37L119.64,42.75A15,15,0,0,0,105,31H15a15,15,0,0,0,0,30H93c1.9,8.55,51.31,230.92,54.16,243.71A45,45,0,0,0,165,391H437a15,15,0,0,0,0-30H165a15,15,0,0,1,0-30ZM477.11,121,425.68,301H177L137,121Z"/><path class="cls-1" d="M150,436a45,45,0,1,0,45-45A45.05,45.05,0,0,0,150,436Zm45-15a15,15,0,1,1-15,15A15,15,0,0,1,195,421Z"/><path class="cls-1" d="M362,436a45,45,0,1,0,45-45A45.05,45.05,0,0,0,362,436Zm45-15a15,15,0,1,1-15,15A15,15,0,0,1,407,421Z"/></svg>