<?xml version="1.0" encoding="utf-8"?>
<!-- Generator: Adobe Illustrator 23.0.0, SVG Export Plug-In . SVG Version: 6.00 Build 0)  -->
<svg version="1.1" id="Camada_1" xmlns="http://www.w3.org/2000/svg" xmlns:xlink="http://www.w3.org/1999/xlink" x="0px" y="0px"
	 viewBox="0 0 499 499" style="enable-background:new 0 0 499 499;" xml:space="preserve">
<style type="text/css">
	.st0{fill:url(#SVGID_1_);}
	.st1{fill:url(#SVGID_2_);}
	.st2{fill:url(#SVGID_3_);}
	.st3{fill:url(#SVGID_4_);}
	.st4{fill:url(#SVGID_5_);}
	.st5{fill:url(#SVGID_6_);}
	.st6{fill:url(#SVGID_7_);}
	.st7{fill:url(#SVGID_8_);}
	.st8{fill:url(#SVGID_9_);}
	.st9{fill:url(#SVGID_10_);}
	.st10{fill:url(#SVGID_11_);}
</style>
<linearGradient id="SVGID_1_" gradientUnits="userSpaceOnUse" x1="49.253" y1="183.8968" x2="337.0915" y2="183.8968">
	<stop  offset="0" style="stop-color:#00A1FB"/>
	<stop  offset="0.59" style="stop-color:#0091E3"/>
	<stop  offset="1" style="stop-color:#0080C8"/>
</linearGradient>
<path class="st0" d="M65.2,16h255.9v135.9h16V0H49.3v367.8h175.9v-16H65.2V16z"/>
<linearGradient id="SVGID_2_" gradientUnits="userSpaceOnUse" x1="208.8431" y1="327.9731" x2="449.3488" y2="327.9731">
	<stop  offset="0" style="stop-color:#00A1FB"/>
	<stop  offset="0.59" style="stop-color:#0091E3"/>
	<stop  offset="1" style="stop-color:#0080C8"/>
</linearGradient>
<path class="st1" d="M435.7,249.2c-3.2-2.6-6-5.8-8-9.4c-0.5-4.3-0.2-8.7,0.9-13c2.8-8.5,2-17.8-2.2-25.7
	c-6.3-6.5-14.9-10.2-23.9-10.1c-4.3-0.2-8.5-1.2-12.4-3c-2.9-3.1-5.1-6.8-6.6-10.8c-2.7-8.7-8.9-15.9-17.1-19.8
	c-8.7-1.6-17.7,0.5-24.8,5.8c-3.7,2.4-7.9,4.1-12.3,4.9c-4.4-0.8-8.6-2.5-12.3-5c-7.1-5.3-16.1-7.4-24.9-5.8
	c-8.2,3.9-14.4,11.1-17.1,19.8c-1.5,4-3.7,7.6-6.6,10.8c-3.9,1.8-8.1,2.8-12.4,3c-9-0.1-17.7,3.6-23.9,10.1
	c-4.3,7.9-5.1,17.2-2.2,25.7c1.1,4.2,1.4,8.6,0.9,13c-2.1,3.6-4.8,6.8-8,9.4c-7.5,5.3-12.5,13.5-13.7,22.6
	c1.2,9.1,6.1,17.3,13.6,22.6c3.2,2.6,5.9,5.8,8,9.4c0.5,4.3,0.2,8.7-0.9,13c-2.8,8.5-2,17.8,2.2,25.7c6.2,6.5,14.9,10.2,23.9,10.1
	c4.3,0.2,8.5,1.3,12.4,3c2.1,2.1,3.8,4.6,5,7.3v136l56-56l56,56V363c1.1-2.8,2.8-5.3,4.9-7.3c3.9-1.8,8.1-2.8,12.4-3
	c9,0.1,17.7-3.6,23.9-10.1c4.2-7.9,5.1-17.2,2.2-25.7c-1.1-4.2-1.4-8.6-0.9-13c2.1-3.6,4.8-6.8,8-9.4c7.5-5.3,12.4-13.5,13.6-22.6
	C448.1,262.7,443.2,254.5,435.7,249.2z M329.1,420.5l-40,40V385c0.9,0.5,1.8,0.9,2.8,1.2c1.8,0.6,3.7,0.9,5.6,0.9
	c6.8-0.6,13.4-2.9,19.2-6.7c3.7-2.4,7.9-4.1,12.3-5c4.4,0.8,8.6,2.5,12.3,5c7.1,5.3,16.1,7.4,24.9,5.8c1-0.3,1.9-0.7,2.8-1.2v75.4
	L329.1,420.5z M424.7,282.9c-5.3,4.3-9.5,9.8-12.2,16c-1.6,6.8-1.4,14,0.4,20.7c0.9,4.8,2.1,11.4,0.6,13.5c-1.5,2-8.2,3-13.1,3.7
	c-7,0.3-13.7,2.4-19.7,6c-5.2,4.6-9.2,10.3-11.6,16.8c-2.3,4.7-5.1,10.7-7.6,11.5c-2.3,0.7-8.1-2.4-12.4-4.7
	c-6-3.9-12.8-6.3-19.9-6.9c-7.1,0.6-13.9,3-19.9,6.9c-4.3,2.3-10.1,5.4-12.3,4.7c-2.6-0.8-5.4-6.7-7.6-11.5
	c-2.4-6.5-6.4-12.2-11.6-16.8c-6-3.6-12.8-5.6-19.7-6c-4.9-0.7-11.6-1.5-13.1-3.7c-1.5-2.1-0.3-8.6,0.6-13.5
	c1.8-6.8,2-13.9,0.4-20.7c-2.7-6.3-6.9-11.8-12.2-16c-3.8-3.7-8.7-8.2-8.7-11s4.8-7.4,8.7-11c5.3-4.3,9.5-9.8,12.2-16
	c1.6-6.8,1.4-14-0.4-20.7c-0.9-4.8-2.1-11.4-0.6-13.5c1.5-2,8.2-3,13.1-3.7c7-0.3,13.7-2.4,19.7-6c5.2-4.6,9.2-10.3,11.6-16.8
	c2.3-4.7,5.1-10.7,7.6-11.5c0.3-0.1,0.5-0.1,0.8-0.1c4.1,0.9,8,2.5,11.6,4.8c6,3.9,12.8,6.2,19.9,6.8c7.1-0.6,13.9-3,19.9-6.9
	c4.3-2.3,10-5.5,12.3-4.7c2.6,0.8,5.4,6.7,7.6,11.5c2.4,6.5,6.4,12.2,11.6,16.8c6,3.6,12.8,5.6,19.7,6c4.9,0.7,11.6,1.5,13.1,3.7
	c1.5,2.1,0.3,8.6-0.6,13.5c-1.8,6.8-2,13.9-0.4,20.7c2.7,6.3,6.9,11.8,12.2,16c3.8,3.7,8.7,8.2,8.7,11S428.6,279.2,424.7,282.9
	L424.7,282.9z"/>
<linearGradient id="SVGID_3_" gradientUnits="userSpaceOnUse" x1="300.6705" y1="264.379" x2="353.0825" y2="264.379">
	<stop  offset="0" style="stop-color:#00A1FB"/>
	<stop  offset="0.59" style="stop-color:#0091E3"/>
	<stop  offset="1" style="stop-color:#0080C8"/>
</linearGradient>
<path class="st2" d="M337.1,208.9l-36.4,24.3l8.9,13.3l11.6-7.7v65h-16v16h48v-16h-16V208.9z"/>
<linearGradient id="SVGID_4_" gradientUnits="userSpaceOnUse" x1="137.2036" y1="55.9686" x2="249.1408" y2="55.9686">
	<stop  offset="0" style="stop-color:#00A1FB"/>
	<stop  offset="0.59" style="stop-color:#0091E3"/>
	<stop  offset="1" style="stop-color:#0080C8"/>
</linearGradient>
<path class="st3" d="M137.2,48h111.9v16H137.2V48z"/>
<linearGradient id="SVGID_5_" gradientUnits="userSpaceOnUse" x1="81.235" y1="95.9462" x2="305.1094" y2="95.9462">
	<stop  offset="0" style="stop-color:#00A1FB"/>
	<stop  offset="0.59" style="stop-color:#0091E3"/>
	<stop  offset="1" style="stop-color:#0080C8"/>
</linearGradient>
<path class="st4" d="M81.2,88h223.9v16H81.2V88z"/>
<linearGradient id="SVGID_6_" gradientUnits="userSpaceOnUse" x1="81.235" y1="135.9237" x2="305.1094" y2="135.9237">
	<stop  offset="0" style="stop-color:#00A1FB"/>
	<stop  offset="0.59" style="stop-color:#0091E3"/>
	<stop  offset="1" style="stop-color:#0080C8"/>
</linearGradient>
<path class="st5" d="M81.2,127.9h223.9v16H81.2V127.9z"/>
<linearGradient id="SVGID_7_" gradientUnits="userSpaceOnUse" x1="81.235" y1="175.9013" x2="241.1453" y2="175.9013">
	<stop  offset="0" style="stop-color:#00A1FB"/>
	<stop  offset="0.59" style="stop-color:#0091E3"/>
	<stop  offset="1" style="stop-color:#0080C8"/>
</linearGradient>
<path class="st6" d="M81.2,167.9h159.9v16H81.2V167.9z"/>
<linearGradient id="SVGID_8_" gradientUnits="userSpaceOnUse" x1="81.235" y1="215.8789" x2="217.1588" y2="215.8789">
	<stop  offset="0" style="stop-color:#00A1FB"/>
	<stop  offset="0.59" style="stop-color:#0091E3"/>
	<stop  offset="1" style="stop-color:#0080C8"/>
</linearGradient>
<path class="st7" d="M81.2,207.9h135.9v16H81.2V207.9z"/>
<linearGradient id="SVGID_9_" gradientUnits="userSpaceOnUse" x1="81.235" y1="255.8564" x2="193.1722" y2="255.8564">
	<stop  offset="0" style="stop-color:#00A1FB"/>
	<stop  offset="0.59" style="stop-color:#0091E3"/>
	<stop  offset="1" style="stop-color:#0080C8"/>
</linearGradient>
<path class="st8" d="M81.2,247.9h111.9v16H81.2V247.9z"/>
<linearGradient id="SVGID_10_" gradientUnits="userSpaceOnUse" x1="81.235" y1="295.834" x2="209.1633" y2="295.834">
	<stop  offset="0" style="stop-color:#00A1FB"/>
	<stop  offset="0.59" style="stop-color:#0091E3"/>
	<stop  offset="1" style="stop-color:#0080C8"/>
</linearGradient>
<path class="st9" d="M81.2,287.8h127.9v16H81.2V287.8z"/>
<linearGradient id="SVGID_11_" gradientUnits="userSpaceOnUse" x1="249.1408" y1="271.8474" x2="409.0511" y2="271.8474">
	<stop  offset="0" style="stop-color:#00A1FB"/>
	<stop  offset="0.59" style="stop-color:#0091E3"/>
	<stop  offset="1" style="stop-color:#0080C8"/>
</linearGradient>
<path class="st10" d="M329.1,191.9c-44.2,0-80,35.8-80,80c0,44.2,35.8,80,80,80s80-35.8,80-80C409,227.7,373.2,191.9,329.1,191.9z
	 M329.1,335.8c-35.3,0-64-28.6-64-64s28.6-64,64-64c35.3,0,64,28.6,64,64C393,307.2,364.4,335.8,329.1,335.8z"/>
</svg>
