<?xml version="1.0" encoding="utf-8"?>
<!-- Generator: Adobe Illustrator 23.0.0, SVG Export Plug-In . SVG Version: 6.00 Build 0)  -->
<svg version="1.1" id="Camada_1" xmlns="http://www.w3.org/2000/svg" xmlns:xlink="http://www.w3.org/1999/xlink" x="0px" y="0px"
	 viewBox="0 0 512 512" style="enable-background:new 0 0 512 512;" xml:space="preserve">
<style type="text/css">
	.st0{fill:url(#SVGID_1_);}
	.st1{fill:url(#SVGID_2_);}
	.st2{fill:url(#SVGID_3_);}
	.st3{fill:url(#SVGID_4_);}
</style>
<g>
	<linearGradient id="SVGID_1_" gradientUnits="userSpaceOnUse" x1="0" y1="256" x2="512" y2="256">
		<stop  offset="0" style="stop-color:#00A1FB"/>
		<stop  offset="0.59" style="stop-color:#0091E3"/>
		<stop  offset="1" style="stop-color:#0080C8"/>
	</linearGradient>
	<path class="st0" d="M512,302.9c0-3-1.6-5.8-4.2-7.4l-34.8-20.4l34.9-20.5c2.6-1.5,4.2-4.3,4.2-7.4c0-3-1.6-5.8-4.2-7.4L407.1,181
		c1.6-8.9,2.5-18.1,2.5-27.4C409.6,68.9,340.7,0,256,0S102.4,68.9,102.4,153.6c0,9.4,0.8,18.5,2.5,27.4L4.2,239.9
		c-2.6,1.5-4.2,4.3-4.2,7.4c0,3,1.6,5.8,4.2,7.4l34.9,20.5L4.2,295.5C1.6,297,0,299.9,0,302.9c0,3,1.6,5.8,4.2,7.4l34.7,20.3
		L4.2,350.9c-2.6,1.5-4.2,4.3-4.2,7.4c0,3,1.6,5.8,4.2,7.4l247.5,145.2c1.3,0.8,2.8,1.2,4.3,1.2s3-0.4,4.3-1.2l247.5-145.2
		c2.6-1.5,4.2-4.3,4.2-7.4c0-3-1.6-5.8-4.2-7.4l-34.7-20.3l34.7-20.3C510.4,308.7,512,305.9,512,302.9z M256,17.1
		c75.3,0,136.5,61.3,136.5,136.5c0,9.9-1.1,19.5-3.1,28.7c-0.1,0.3-0.2,0.7-0.3,1C376,242.3,324.6,285.8,265,289.8
		c-0.1,0-0.3,0-0.4,0c-0.8,0.1-1.6,0.1-2.4,0.1c-0.5,0-1,0-1.4,0.1c-0.5,0-1.1,0-1.6,0.1c-1.1,0-2.1,0-3.2,0s-2.1,0-3.2,0
		c-0.5,0-1.1,0-1.6-0.1c-0.5,0-1,0-1.4-0.1c-0.8,0-1.6-0.1-2.4-0.1c-0.1,0-0.3,0-0.4,0c-59.6-4-111-47.5-124.1-106.4
		c-0.1-0.4-0.2-0.7-0.3-1.1c-2-9.3-3-18.9-3-28.7C119.5,78.3,180.7,17.1,256,17.1z M109,198.3c18.3,60,72.3,104.5,137.2,108.6
		c0.2,0,0.4,0,0.6,0c0.8,0,1.5,0.1,2.3,0.1c0.6,0,1.2,0,1.8,0.1c0.5,0,1,0,1.6,0c1.2,0,2.4,0,3.5,0s2.4,0,3.5,0c0.5,0,1,0,1.6,0
		c0.6,0,1.2,0,1.8-0.1c0.8,0,1.5-0.1,2.3-0.1c0.2,0,0.4,0,0.6,0c64.8-4.1,118.9-48.6,137.2-108.5l83.6,49l-34.8,20.5c0,0,0,0,0,0
		L256,382.6L25.4,247.3L109,198.3z M456.3,340.5l30.3,17.8L256,493.6L25.4,358.2l30.3-17.8l195.9,115c1.3,0.8,2.8,1.2,4.3,1.2
		s3-0.4,4.3-1.2L456.3,340.5z M452,323.2C452,323.2,452,323.2,452,323.2l-196,115L25.4,302.9L55.9,285l195.7,114.9
		c0.3,0.2,0.7,0.4,1,0.5c2.1,0.9,4.5,0.9,6.6,0c0.4-0.1,0.7-0.3,1-0.5L456.1,285l30.5,17.9L452,323.2z"/>
	<linearGradient id="SVGID_2_" gradientUnits="userSpaceOnUse" x1="136.5352" y1="98.1328" x2="264.5352" y2="98.1328">
		<stop  offset="0" style="stop-color:#00A1FB"/>
		<stop  offset="0.59" style="stop-color:#0091E3"/>
		<stop  offset="1" style="stop-color:#0080C8"/>
	</linearGradient>
	<path class="st1" d="M145.1,162.1c4.7,0,8.5-3.8,8.5-8.5c0-56.5,45.9-102.4,102.4-102.4c4.7,0,8.5-3.8,8.5-8.5s-3.8-8.5-8.5-8.5
		c-65.9,0-119.5,53.6-119.5,119.5C136.5,158.3,140.4,162.1,145.1,162.1z"/>
	<linearGradient id="SVGID_3_" gradientUnits="userSpaceOnUse" x1="247.4648" y1="209.0664" x2="375.4648" y2="209.0664">
		<stop  offset="0" style="stop-color:#00A1FB"/>
		<stop  offset="0.59" style="stop-color:#0091E3"/>
		<stop  offset="1" style="stop-color:#0080C8"/>
	</linearGradient>
	<path class="st2" d="M247.5,264.5c0,4.7,3.8,8.5,8.5,8.5c65.9,0,119.5-53.6,119.5-119.5c0-4.7-3.8-8.5-8.5-8.5s-8.5,3.8-8.5,8.5
		c0,56.5-45.9,102.4-102.4,102.4C251.3,256,247.5,259.8,247.5,264.5z"/>
	<linearGradient id="SVGID_4_" gradientUnits="userSpaceOnUse" x1="196.2656" y1="153.5996" x2="307.1992" y2="153.5996">
		<stop  offset="0" style="stop-color:#00A1FB"/>
		<stop  offset="0.59" style="stop-color:#0091E3"/>
		<stop  offset="1" style="stop-color:#0080C8"/>
	</linearGradient>
	<path class="st3" d="M264.5,93.9h-17.1V76.8c0-4.7-3.8-8.5-8.5-8.5s-8.5,3.8-8.5,8.5v17.1h-8.5h-17.1c-4.7,0-8.5,3.8-8.5,8.5
		s3.8,8.5,8.5,8.5h8.5v42.7v42.7h-8.5c-4.7,0-8.5,3.8-8.5,8.5s3.8,8.5,8.5,8.5h17.1h8.5v17.1c0,4.7,3.8,8.5,8.5,8.5s8.5-3.8,8.5-8.5
		v-17.1h17.1v17.1c0,4.7,3.8,8.5,8.5,8.5s8.5-3.8,8.5-8.5v-18.1c14.7-3.8,25.6-17.2,25.6-33.1c0-10.2-4.5-19.3-11.6-25.6
		c7.1-6.3,11.6-15.4,11.6-25.6c0-15.9-10.9-29.3-25.6-33.1V76.8c0-4.7-3.8-8.5-8.5-8.5s-8.5,3.8-8.5,8.5V93.9z M290.1,179.2
		c0,9.4-7.7,17.1-17.1,17.1h-42.7v-34.1h42.7C282.5,162.1,290.1,169.8,290.1,179.2z M290.1,128c0,9.4-7.7,17.1-17.1,17.1h-42.7
		v-34.1h42.7C282.5,110.9,290.1,118.6,290.1,128z"/>
</g>
</svg>
