<?xml version="1.0" encoding="utf-8"?>
<!-- Generator: Adobe Illustrator 23.0.0, SVG Export Plug-In . SVG Version: 6.00 Build 0)  -->
<svg version="1.1" id="Capa_1" xmlns="http://www.w3.org/2000/svg" xmlns:xlink="http://www.w3.org/1999/xlink" x="0px" y="0px"
	 viewBox="0 0 499.4 499.4" style="enable-background:new 0 0 499.4 499.4;" xml:space="preserve">
<style type="text/css">
	.st0{fill:url(#SVGID_1_);}
	.st1{fill:url(#SVGID_2_);}
</style>
<g>
	<g>
		<linearGradient id="SVGID_1_" gradientUnits="userSpaceOnUse" x1="1.68" y1="251.36" x2="177.68" y2="251.36">
			<stop  offset="0" style="stop-color:#00A1FB"/>
			<stop  offset="0.59" style="stop-color:#0091E3"/>
			<stop  offset="1" style="stop-color:#0080C8"/>
		</linearGradient>
		<path class="st0" d="M108.8,403.4c-2.5-2.4-5.1-4.8-7.6-7.2c37.9-37.2,76.5-82.8,76.5-144.8s-38.6-107.6-76.5-144.8
			c2.5-2.4,5.1-4.8,7.6-7.2c32.7-30.9,60.9-57.5,60.9-88v-8h-16v8c0,5.3-1.4,10.6-3.7,16H29.4c-2.4-5.4-3.7-10.7-3.7-16v-8h-16v8
			c0,30.5,28.2,57.1,60.9,88c2.5,2.4,5.1,4.8,7.6,7.2C40.3,143.7,1.7,189.4,1.7,251.4S40.3,359,78.2,396.2c-2.5,2.4-5.1,4.8-7.6,7.2
			c-32.7,30.9-60.9,57.5-60.9,88v8h16v-8c0-5.3,1.4-10.6,3.7-16H150c2.3,5.4,3.7,10.7,3.7,16v8h16v-8
			C169.7,460.9,141.5,434.2,108.8,403.4z M39,43.4h101.4c-3.9,5.2-8.5,10.6-13.7,16H52.6C47.5,53.9,42.9,48.6,39,43.4z M68.6,75.4
			h42.2c-4.2,4-8.5,8.2-13,12.4c-2.7,2.5-5.4,5.1-8.1,7.7c-2.7-2.6-5.5-5.2-8.1-7.7C77.1,83.5,72.8,79.4,68.6,75.4z M89.7,117.7
			c9.7,9.5,19.2,19.3,28.1,29.7H61.6C70.4,137,80,127.1,89.7,117.7z M30.1,195.4h75.6v-16H38.5c3.4-5.8,7.2-11.4,11.2-16.9v0.9h80
			v-0.9c4,5.5,7.7,11.1,11.2,16.9h-19.2v16h27.6c2.3,5.2,4.3,10.5,6.1,16H24C25.8,205.9,27.7,200.5,30.1,195.4z M19.9,227.4h139.6
			c1,5.2,1.5,10.5,1.8,16H18C18.4,237.9,18.9,232.5,19.9,227.4z M24,291.4h25.7v-16H19.9c-1-5.2-1.5-10.5-1.8-16h143.3
			c-0.3,5.5-0.9,10.8-1.8,16H65.7v16h89.7c-1.7,5.5-3.7,10.8-6.1,16H30.1C27.7,302.2,25.8,296.8,24,291.4z M49.7,340.3
			c-4-5.5-7.7-11.1-11.2-16.9h102.3c-3.4,5.8-7.2,11.4-11.2,16.9v-0.9h-80C49.7,339.4,49.7,340.3,49.7,340.3z M61.6,355.4h56.2
			c-8.8,10.4-18.4,20.2-28.1,29.7C80,375.6,70.4,365.8,61.6,355.4z M81.6,415c2.7-2.5,5.4-5.1,8.1-7.7c2.7,2.6,5.5,5.2,8.1,7.7
			c4.4,4.2,8.8,8.3,13,12.4H68.6C72.8,423.3,77.1,419.2,81.6,415z M39,459.4c3.9-5.2,8.5-10.6,13.7-16h74.1
			c5.1,5.4,9.8,10.8,13.7,16H39z"/>
	</g>
</g>
<g>
	<g>
		<linearGradient id="SVGID_2_" gradientUnits="userSpaceOnUse" x1="177.68" y1="249.68" x2="497.68" y2="249.68">
			<stop  offset="0" style="stop-color:#00A1FB"/>
			<stop  offset="0.59" style="stop-color:#0091E3"/>
			<stop  offset="1" style="stop-color:#0080C8"/>
		</linearGradient>
		<path class="st1" d="M457.7,435.4h-12.9c18.9-34.2,28.9-72.7,28.9-112c0-64.6-27-126.2-74.3-170l21.7-21.7l-16-16l28.7-28.7l8,8
			L477,59.5L417.7,0l-35.2,35.7l7.9,7.9l-28.7,28.6l-15.9-15.9l-112,112l-16-16l-35.3,35.3l107.3,107.3l35.3-35.3l-16-16l44.9-44.9
			c23.1,20.8,40.1,47.8,48.8,77.4c-14.3,3.2-25.1,15.9-25.1,31.2c0,17.4,14,31.5,31.2,31.9c-0.6,6.7-1.7,13.3-3.1,19.9
			c-6.3-2.4-13-3.8-20.1-3.8h-120c-22.1,0-40,17.9-40,40v8h104.6c-0.4,2.6-0.6,5.3-0.6,8v24h-112c-22.1,0-40,17.9-40,40v24h320v-24
			C497.7,453.3,479.7,435.4,457.7,435.4z M417.7,22.7l36.7,36.8l-12.6,12.8l-36.7-36.7L417.7,22.7z M401.8,54.9l20.7,20.7
			l-28.7,28.7L373,83.5L401.8,54.9z M289.8,272.3l-84.7-84.7l12.7-12.7l84.7,84.7L289.8,272.3z M297.8,232.3l-52.7-52.7L345.8,78.9
			l52.7,52.7L297.8,232.3z M365.3,187.4l22.8-22.8c44.3,40.9,69.6,98.4,69.6,158.7c0,28.4-5.6,56.4-16.3,82.4
			c-1.6-15.5-9.5-29.1-21.1-38.3c2.6-10.6,4.3-21.4,5-32.3c9.8-5.5,16.4-15.8,16.4-27.8c0-14.1-9.3-26-22-30.2
			C410.7,242.8,391.7,211.4,365.3,187.4z M393.7,307.4c0-8.8,7.2-16,16-16s16,7.2,16,16s-7.2,16-16,16S393.7,316.2,393.7,307.4z
			 M243,387.4c3.3-9.3,12.2-16,22.6-16h80.9c-4.7,4.6-8.5,10-11.4,16H243z M481.7,483.4h-288v-8c0-13.2,10.8-24,24-24h144v-16h-16
			v-24c0-22.1,17.9-40,40-40s40,17.9,40,40v24h-48v16h80c13.2,0,24,10.8,24,24V483.4z"/>
	</g>
</g>
</svg>
