<svg id="instagram" xmlns="http://www.w3.org/2000/svg" width="192.892" height="192.892" viewBox="0 0 192.892 192.892">
  <path id="Path_4" data-name="Path 4" d="M97.892,23.88H40.4A16.661,16.661,0,0,0,23.759,40.522V98.013A16.663,16.663,0,0,0,40.4,114.657H97.892a16.663,16.663,0,0,0,16.644-16.644V40.522A16.661,16.661,0,0,0,97.892,23.88ZM69.146,99.152A29.883,29.883,0,1,1,99.031,69.267,29.917,29.917,0,0,1,69.146,99.152ZM99.991,45.564a7.07,7.07,0,1,1,7.07-7.07A7.079,7.079,0,0,1,99.991,45.564Z" transform="translate(27.3 27.439)" fill="#0091e3"/>
  <path id="Path_5" data-name="Path 5" d="M54.106,36.971A17.256,17.256,0,1,0,71.36,54.223,17.277,17.277,0,0,0,54.106,36.971Z" transform="translate(42.34 42.48)" fill="#0091e3"/>
  <path id="Path_6" data-name="Path 6" d="M96.446,0a96.446,96.446,0,1,0,96.446,96.446A96.449,96.449,0,0,0,96.446,0Zm58.015,125.451a29.3,29.3,0,0,1-29.27,29.27H67.7a29.3,29.3,0,0,1-29.27-29.27V67.961A29.3,29.3,0,0,1,67.7,38.691h57.491a29.3,29.3,0,0,1,29.27,29.27Z" fill="#0091e3"/>
</svg>
