<?xml version="1.0" encoding="utf-8"?>
<!-- Generator: Adobe Illustrator 23.0.0, SVG Export Plug-In . SVG Version: 6.00 Build 0)  -->
<svg version="1.1" id="Camada_1" xmlns="http://www.w3.org/2000/svg" xmlns:xlink="http://www.w3.org/1999/xlink" x="0px" y="0px"
	 viewBox="0 0 496 496" style="enable-background:new 0 0 496 496;" xml:space="preserve">
<style type="text/css">
	.st0{fill:url(#SVGID_1_);}
	.st1{fill:url(#SVGID_2_);}
	.st2{fill:url(#SVGID_3_);}
</style>
<linearGradient id="SVGID_1_" gradientUnits="userSpaceOnUse" x1="1.379376e-02" y1="248.0005" x2="496.0018" y2="248.0005">
	<stop  offset="0" style="stop-color:#00A1FB"/>
	<stop  offset="0.59" style="stop-color:#0091E3"/>
	<stop  offset="1" style="stop-color:#0080C8"/>
</linearGradient>
<path class="st0" d="M451,405.3c7.9-7.3,13-17.7,13-29.3v-16c0-22.1-17.9-40-40-40c-19.3,0-35.5,13.8-39.2,32h-26.3
	c-3.3-9.3-12.1-16-22.5-16c-10.4,0-19.2,6.7-22.5,16h-26.3c-3.2-15.6-15.5-28-31.2-31.2v-17.9c13.8-3.6,24-16,24-30.9h8
	c4.4,0,8-3.6,8-8v-24h16v-16h-16v-0.1c0-15.3,7.3-30.3,19.9-41.2c22.9-19.8,36.1-48.5,36.1-78.7c0-28.6-11.4-55.2-32-75
	C299.4,9.2,272.2-1.1,243.7,0.1c-54,2.2-98.7,47.9-99.7,102c-0.6,30.6,12.4,59.8,35.4,80c12.7,11.1,20.1,26.3,20.5,41.9H184v16h16
	v24c0,4.4,3.6,8,8,8h8c0,14.9,10.2,27.3,24,30.9v17.9c-15.6,3.2-28,15.5-31.2,31.2h-26.3c-3.3-9.3-12.1-16-22.5-16
	c-10.4,0-19.2,6.7-22.5,16h-26.3c-3.7-18.2-19.9-32-39.2-32c-22.1,0-40,17.9-40,40v16c0,11.6,5.1,22,13,29.3C18.7,416,0,441.9,0,472
	v16c0,4.4,3.6,8,8,8h128c4.4,0,8-3.6,8-8v-16c0-30.1-18.6-56-45-66.7c7.9-7.3,13-17.7,13-29.3v-8h25.5c3.3,9.3,12.1,16,22.5,16
	c10.4,0,19.2-6.7,22.5-16H208v8c0,11.6,5.1,22,13,29.3c-26.3,10.7-45,36.5-45,66.7v16c0,4.4,3.6,8,8,8h128c4.4,0,8-3.6,8-8v-16
	c0-30.1-18.6-56-45-66.7c7.9-7.3,13-17.7,13-29.3v-8h25.5c3.3,9.3,12.1,16,22.5,16c10.4,0,19.2-6.7,22.5-16H384v8
	c0,11.6,5.1,22,13,29.3c-26.3,10.7-45,36.5-45,66.7v16c0,4.4,3.6,8,8,8h128c4.4,0,8-3.6,8-8v-16C496,441.9,477.4,416,451,405.3z
	 M128,472v8h-16v-16H96v16H48v-16H32v16H16v-8c0-30.9,25.1-56,56-56C102.9,416,128,441.1,128,472z M48,376v-16c0-13.2,10.8-24,24-24
	c13.2,0,24,10.8,24,24v16c0,13.2-10.8,24-24,24C58.8,400,48,389.2,48,376z M160,368c-4.4,0-8-3.6-8-8c0-4.4,3.6-8,8-8
	c4.4,0,8,3.6,8,8C168,364.4,164.4,368,160,368z M190,170.1c-19.5-17.1-30.4-41.8-29.9-67.7c0.8-45.7,38.7-84.5,84.3-86.3
	c24.4-0.9,47.2,7.7,64.6,24.5C326.4,57.3,336,79.8,336,104c0,25.6-11.1,49.8-30.5,66.5c-16.2,14-25.5,33.4-25.5,53.4v0.1h-64.1
	C215.5,203.8,206.1,184.2,190,170.1z M280,240v16h-64v-16H280z M232,272h32c0,8.8-7.2,16-16,16C239.2,288,232,280.8,232,272z
	 M304,472v8h-16v-16h-16v16h-48v-16h-16v16h-16v-8c0-30.9,25.1-56,56-56C278.9,416,304,441.1,304,472z M224,376v-16
	c0-13.2,10.8-24,24-24c13.2,0,24,10.8,24,24v16c0,13.2-10.8,24-24,24C234.8,400,224,389.2,224,376z M336,368c-4.4,0-8-3.6-8-8
	c0-4.4,3.6-8,8-8c4.4,0,8,3.6,8,8C344,364.4,340.4,368,336,368z M400,376v-16c0-13.2,10.8-24,24-24c13.2,0,24,10.8,24,24v16
	c0,13.2-10.8,24-24,24C410.8,400,400,389.2,400,376z M480,480h-16v-16h-16v16h-48v-16h-16v16h-16v-8c0-30.9,25.1-56,56-56
	c30.9,0,56,25.1,56,56V480z"/>
<linearGradient id="SVGID_2_" gradientUnits="userSpaceOnUse" x1="232.0082" y1="200.0069" x2="264.0074" y2="200.0069">
	<stop  offset="0" style="stop-color:#00A1FB"/>
	<stop  offset="0.59" style="stop-color:#0091E3"/>
	<stop  offset="1" style="stop-color:#0080C8"/>
</linearGradient>
<path class="st1" d="M232,192h32v16h-32V192z"/>
<linearGradient id="SVGID_3_" gradientUnits="userSpaceOnUse" x1="192.0092" y1="104.0092" x2="304.0065" y2="104.0092">
	<stop  offset="0" style="stop-color:#00A1FB"/>
	<stop  offset="0.59" style="stop-color:#0091E3"/>
	<stop  offset="1" style="stop-color:#0080C8"/>
</linearGradient>
<path class="st2" d="M240,143.2V160h16v-16.8c5.1-1,9.8-3.1,14-5.9l12.3,12.3l11.3-11.3L281.3,126c2.8-4.2,4.8-8.9,5.9-14H304V96
	h-16.8c-1-5.1-3.1-9.8-5.9-14l12.3-12.3l-11.3-11.3L270,70.7c-4.2-2.8-8.9-4.8-14-5.9V48h-16v16.8c-5.1,1-9.8,3.1-14,5.9l-12.3-12.3
	l-11.3,11.3L214.7,82c-2.8,4.2-4.8,8.9-5.9,14H192v16h16.8c1,5.1,3.1,9.8,5.9,14l-12.3,12.3l11.3,11.3l12.3-12.3
	C230.2,140.1,234.9,142.2,240,143.2z M248,80c13.2,0,24,10.8,24,24s-10.8,24-24,24c-13.2,0-24-10.8-24-24S234.8,80,248,80z"/>
</svg>
