<svg id="linkedin" xmlns="http://www.w3.org/2000/svg" width="184.972" height="184.972" viewBox="0 0 184.972 184.972">
  <path id="Path_25" data-name="Path 25" d="M92.486,0A92.486,92.486,0,1,1,0,92.486,92.486,92.486,0,0,1,92.486,0Z" transform="translate(0 0)" fill="#0091e3"/>
  <g id="Group_42" data-name="Group 42" transform="translate(49.572 46.113)">
    <path id="Path_2" data-name="Path 2" d="M117.632,77.023V110.51H98.217V79.267c0-7.845-2.8-13.2-9.833-13.2-5.364,0-8.551,3.607-9.959,7.1a13.288,13.288,0,0,0-.643,4.732v32.613H58.366s.261-52.915,0-58.393H77.784v8.275c-.039.065-.094.129-.129.191h.129v-.191c2.58-3.97,7.182-9.646,17.5-9.646,12.773,0,22.35,8.346,22.35,26.278ZM38.055,23.969c-6.642,0-10.987,4.36-10.987,10.088,0,5.606,4.219,10.092,10.732,10.092h.126c6.772,0,10.982-4.486,10.982-10.092-.129-5.728-4.211-10.088-10.853-10.088ZM28.222,110.51H47.631V52.116H28.222Z" transform="translate(-27.068 -23.969)" fill="#fff"/>
  </g>
</svg>
