<?xml version="1.0" encoding="utf-8"?>
<!-- Generator: Adobe Illustrator 23.0.0, SVG Export Plug-In . SVG Version: 6.00 Build 0)  -->
<svg version="1.1" id="Capa_1" xmlns="http://www.w3.org/2000/svg" xmlns:xlink="http://www.w3.org/1999/xlink" x="0px" y="0px"
	 viewBox="0 0 630.4 618.1" style="enable-background:new 0 0 630.4 618.1;" xml:space="preserve">
<style type="text/css">
	.st0{fill:url(#SVGID_1_);}
	.st1{fill:url(#SVGID_2_);}
	.st2{fill:url(#SVGID_3_);}
	.st3{fill:url(#SVGID_4_);}
	.st4{fill:url(#SVGID_5_);}
	.st5{fill:url(#SVGID_6_);}
	.st6{fill:url(#SVGID_7_);}
	.st7{fill:url(#SVGID_8_);}
	.st8{fill:url(#SVGID_9_);}
	.st9{fill:url(#SVGID_10_);}
	.st10{fill:url(#SVGID_11_);}
	.st11{fill:url(#SVGID_12_);}
	.st12{fill:url(#SVGID_13_);}
</style>
<g>
	<linearGradient id="SVGID_1_" gradientUnits="userSpaceOnUse" x1="111.0114" y1="447.9298" x2="217.8907" y2="447.9298">
		<stop  offset="0" style="stop-color:#4BBCFB"/>
		<stop  offset="0.153" style="stop-color:#47BBFB"/>
		<stop  offset="0.2964" style="stop-color:#3CB7FB"/>
		<stop  offset="0.4361" style="stop-color:#29B0FB"/>
		<stop  offset="0.5726" style="stop-color:#0FA6FB"/>
		<stop  offset="0.6341" style="stop-color:#00A1FB"/>
		<stop  offset="0.7791" style="stop-color:#009AF0"/>
		<stop  offset="1" style="stop-color:#0091E3"/>
	</linearGradient>
	<path class="st0" d="M217.9,374l-15.8-9.3l-89.8,152.7c-0.8,1.4-1.3,3-1.3,4.7c0,2.4,1,4.8,2.7,6.5c1.7,1.7,4,2.7,6.5,2.7
		c0,0,0,0,0,0h72.6v-18.3h-56.6L217.9,374z"/>
	<linearGradient id="SVGID_2_" gradientUnits="userSpaceOnUse" x1="67.7921" y1="319.3334" x2="576.7863" y2="319.3334">
		<stop  offset="0" style="stop-color:#4BBCFB"/>
		<stop  offset="0.153" style="stop-color:#47BBFB"/>
		<stop  offset="0.2964" style="stop-color:#3CB7FB"/>
		<stop  offset="0.4361" style="stop-color:#29B0FB"/>
		<stop  offset="0.5726" style="stop-color:#0FA6FB"/>
		<stop  offset="0.6341" style="stop-color:#00A1FB"/>
		<stop  offset="0.7791" style="stop-color:#009AF0"/>
		<stop  offset="1" style="stop-color:#0091E3"/>
	</linearGradient>
	<path class="st1" d="M576.8,334.4c0-6.5-2.5-12.6-7.1-17.2c-4.6-4.6-10.7-7.1-17.2-7.1h-69.9l-0.4-0.7
		c-7.1-10.9-19.5-27.8-19.6-27.9c-24.7-30.8-59.5-52.9-98-62.3l-1.1-0.3V74c0-5.1-4.1-9.2-9.2-9.2h-74.7c-5.1,0-9.2,4.1-9.2,9.2v148
		l-1.1,0.3c-7.1,2.2-14.2,4.9-21.2,8l-2.1,1v-39.9c0-5.1-4.1-9.2-9.2-9.2h-53.3c-5.1,0-9.2,4.1-9.2,9.2v136.2l-0.2,0.4l-99.4,169
		c-4.6,7.8-7.1,16.8-7.1,25.9c0,28.2,22.9,51.1,51.1,51.1h194.2c9.7,0,19.2-2.8,27.3-8.1c5.1-3.3,9.5-7.4,13-12.2l1.2-1.6l1.2,1.6
		c9.9,12.9,24.9,20.3,41.1,20.3h96c28.5,0,51.8-23.3,51.8-51.8V376.5l24.9-24.9C574.3,347,576.8,340.9,576.8,334.4z M313.1,555.5
		H118.9c0,0,0,0-0.1,0c-5.8,0-11.6-1.6-16.6-4.5c-15.6-9.2-20.8-29.3-11.6-44.8l100.9-171.5c0.8-1.4,1.3-3,1.3-4.6V200.5h35V330
		c0,1.8,0.5,3.5,1.5,5L340,506.1c3.4,5.2,5.1,11.2,5.1,17.4C345.1,541.1,330.8,555.5,313.1,555.5z M345.1,351.3v128.9l-99-153v-75.5
		l0.8-0.4c11.1-5.9,22.9-10.4,35-13.5c4.1-1,6.9-4.7,6.9-8.9V83.2h56.3v143.3c0,4.4,3.1,8.2,7.5,9c37.7,7.2,71.7,27.7,95.7,57.6
		c3.7,4.4,8,10.4,10.9,14.8l1.6,2.3h-74.5C363.6,310.2,345.1,328.6,345.1,351.3z M556.7,338.6l-27.6,27.6c-1.7,1.7-2.7,4-2.7,6.5
		V522c0,18.5-15,33.5-33.5,33.5h-96c-18.5,0-33.5-15-33.5-33.5V351.3c0-12.6,10.2-22.8,22.8-22.8h166.3c0,0,0,0,0,0
		c1.6,0,3.1,0.6,4.2,1.7C559,332.5,559,336.3,556.7,338.6z"/>
	<linearGradient id="SVGID_3_" gradientUnits="userSpaceOnUse" x1="451.7911" y1="452.6667" x2="502.1251" y2="452.6667">
		<stop  offset="0" style="stop-color:#4BBCFB"/>
		<stop  offset="0.153" style="stop-color:#47BBFB"/>
		<stop  offset="0.2964" style="stop-color:#3CB7FB"/>
		<stop  offset="0.4361" style="stop-color:#29B0FB"/>
		<stop  offset="0.5726" style="stop-color:#0FA6FB"/>
		<stop  offset="0.6341" style="stop-color:#00A1FB"/>
		<stop  offset="0.7791" style="stop-color:#009AF0"/>
		<stop  offset="1" style="stop-color:#0091E3"/>
	</linearGradient>
	<path class="st2" d="M451.8,531.2H493c5.1,0,9.2-4.1,9.2-9.2V374.2h-18.3v138.7h-32V531.2z"/>
	<linearGradient id="SVGID_4_" gradientUnits="userSpaceOnUse" x1="483.7911" y1="249.9992" x2="555.4572" y2="249.9992">
		<stop  offset="0" style="stop-color:#4BBCFB"/>
		<stop  offset="0.153" style="stop-color:#47BBFB"/>
		<stop  offset="0.2964" style="stop-color:#3CB7FB"/>
		<stop  offset="0.4361" style="stop-color:#29B0FB"/>
		<stop  offset="0.5726" style="stop-color:#0FA6FB"/>
		<stop  offset="0.6341" style="stop-color:#00A1FB"/>
		<stop  offset="0.7791" style="stop-color:#009AF0"/>
		<stop  offset="1" style="stop-color:#0091E3"/>
	</linearGradient>
	<path class="st3" d="M519.6,285.8c19.8,0,35.8-16.1,35.8-35.8s-16.1-35.8-35.8-35.8s-35.8,16.1-35.8,35.8S499.9,285.8,519.6,285.8z
		 M519.6,232.5c9.6,0,17.5,7.9,17.5,17.5s-7.9,17.5-17.5,17.5s-17.5-7.9-17.5-17.5S510,232.5,519.6,232.5z"/>
	<linearGradient id="SVGID_5_" gradientUnits="userSpaceOnUse" x1="451.7911" y1="170.0002" x2="512.7911" y2="170.0002">
		<stop  offset="0" style="stop-color:#4BBCFB"/>
		<stop  offset="0.153" style="stop-color:#47BBFB"/>
		<stop  offset="0.2964" style="stop-color:#3CB7FB"/>
		<stop  offset="0.4361" style="stop-color:#29B0FB"/>
		<stop  offset="0.5726" style="stop-color:#0FA6FB"/>
		<stop  offset="0.6341" style="stop-color:#00A1FB"/>
		<stop  offset="0.7791" style="stop-color:#009AF0"/>
		<stop  offset="1" style="stop-color:#0091E3"/>
	</linearGradient>
	<path class="st4" d="M482.3,200.5c16.8,0,30.5-13.7,30.5-30.5s-13.7-30.5-30.5-30.5s-30.5,13.7-30.5,30.5S465.5,200.5,482.3,200.5z
		 M482.3,157.8c6.7,0,12.2,5.5,12.2,12.2c0,6.7-5.5,12.2-12.2,12.2s-12.2-5.5-12.2-12.2C470.1,163.3,475.6,157.8,482.3,157.8z"/>
	<linearGradient id="SVGID_6_" gradientUnits="userSpaceOnUse" x1="67.7911" y1="185.9997" x2="139.4572" y2="185.9997">
		<stop  offset="0" style="stop-color:#4BBCFB"/>
		<stop  offset="0.153" style="stop-color:#47BBFB"/>
		<stop  offset="0.2964" style="stop-color:#3CB7FB"/>
		<stop  offset="0.4361" style="stop-color:#29B0FB"/>
		<stop  offset="0.5726" style="stop-color:#0FA6FB"/>
		<stop  offset="0.6341" style="stop-color:#00A1FB"/>
		<stop  offset="0.7791" style="stop-color:#009AF0"/>
		<stop  offset="1" style="stop-color:#0091E3"/>
	</linearGradient>
	<path class="st5" d="M103.6,221.8c19.8,0,35.8-16.1,35.8-35.8c0-19.8-16.1-35.8-35.8-35.8S67.8,166.2,67.8,186
		C67.8,205.8,83.9,221.8,103.6,221.8z M103.6,168.5c9.6,0,17.5,7.9,17.5,17.5s-7.9,17.5-17.5,17.5s-17.5-7.9-17.5-17.5
		S94,168.5,103.6,168.5z"/>
	<linearGradient id="SVGID_7_" gradientUnits="userSpaceOnUse" x1="121.1241" y1="106.0002" x2="182.1241" y2="106.0002">
		<stop  offset="0" style="stop-color:#4BBCFB"/>
		<stop  offset="0.153" style="stop-color:#47BBFB"/>
		<stop  offset="0.2964" style="stop-color:#3CB7FB"/>
		<stop  offset="0.4361" style="stop-color:#29B0FB"/>
		<stop  offset="0.5726" style="stop-color:#0FA6FB"/>
		<stop  offset="0.6341" style="stop-color:#00A1FB"/>
		<stop  offset="0.7791" style="stop-color:#009AF0"/>
		<stop  offset="1" style="stop-color:#0091E3"/>
	</linearGradient>
	<path class="st6" d="M151.6,136.5c16.8,0,30.5-13.7,30.5-30.5s-13.7-30.5-30.5-30.5s-30.5,13.7-30.5,30.5S134.8,136.5,151.6,136.5z
		 M151.6,93.8c6.7,0,12.2,5.5,12.2,12.2c0,6.7-5.5,12.2-12.2,12.2s-12.2-5.5-12.2-12.2C139.5,99.3,144.9,93.8,151.6,93.8z"/>
	<linearGradient id="SVGID_8_" gradientUnits="userSpaceOnUse" x1="387.7911" y1="383.3332" x2="416.7911" y2="383.3332">
		<stop  offset="0" style="stop-color:#4BBCFB"/>
		<stop  offset="0.153" style="stop-color:#47BBFB"/>
		<stop  offset="0.2964" style="stop-color:#3CB7FB"/>
		<stop  offset="0.4361" style="stop-color:#29B0FB"/>
		<stop  offset="0.5726" style="stop-color:#0FA6FB"/>
		<stop  offset="0.6341" style="stop-color:#00A1FB"/>
		<stop  offset="0.7791" style="stop-color:#009AF0"/>
		<stop  offset="1" style="stop-color:#0091E3"/>
	</linearGradient>
	<rect x="387.8" y="374.2" class="st7" width="29" height="18.3"/>
	<linearGradient id="SVGID_9_" gradientUnits="userSpaceOnUse" x1="387.7911" y1="426.0002" x2="406.1241" y2="426.0002">
		<stop  offset="0" style="stop-color:#4BBCFB"/>
		<stop  offset="0.153" style="stop-color:#47BBFB"/>
		<stop  offset="0.2964" style="stop-color:#3CB7FB"/>
		<stop  offset="0.4361" style="stop-color:#29B0FB"/>
		<stop  offset="0.5726" style="stop-color:#0FA6FB"/>
		<stop  offset="0.6341" style="stop-color:#00A1FB"/>
		<stop  offset="0.7791" style="stop-color:#009AF0"/>
		<stop  offset="1" style="stop-color:#0091E3"/>
	</linearGradient>
	<rect x="387.8" y="416.8" class="st8" width="18.3" height="18.3"/>
	<linearGradient id="SVGID_10_" gradientUnits="userSpaceOnUse" x1="387.7911" y1="468.6671" x2="416.7911" y2="468.6671">
		<stop  offset="0" style="stop-color:#4BBCFB"/>
		<stop  offset="0.153" style="stop-color:#47BBFB"/>
		<stop  offset="0.2964" style="stop-color:#3CB7FB"/>
		<stop  offset="0.4361" style="stop-color:#29B0FB"/>
		<stop  offset="0.5726" style="stop-color:#0FA6FB"/>
		<stop  offset="0.6341" style="stop-color:#00A1FB"/>
		<stop  offset="0.7791" style="stop-color:#009AF0"/>
		<stop  offset="1" style="stop-color:#0091E3"/>
	</linearGradient>
	<rect x="387.8" y="459.5" class="st9" width="29" height="18.3"/>
	<linearGradient id="SVGID_11_" gradientUnits="userSpaceOnUse" x1="387.7911" y1="511.3332" x2="406.1241" y2="511.3332">
		<stop  offset="0" style="stop-color:#4BBCFB"/>
		<stop  offset="0.153" style="stop-color:#47BBFB"/>
		<stop  offset="0.2964" style="stop-color:#3CB7FB"/>
		<stop  offset="0.4361" style="stop-color:#29B0FB"/>
		<stop  offset="0.5726" style="stop-color:#0FA6FB"/>
		<stop  offset="0.6341" style="stop-color:#00A1FB"/>
		<stop  offset="0.7791" style="stop-color:#009AF0"/>
		<stop  offset="1" style="stop-color:#0091E3"/>
	</linearGradient>
	<rect x="387.8" y="502.2" class="st10" width="18.3" height="18.3"/>
	<linearGradient id="SVGID_12_" gradientUnits="userSpaceOnUse" x1="89.1241" y1="265.9997" x2="107.4572" y2="265.9997">
		<stop  offset="0" style="stop-color:#4BBCFB"/>
		<stop  offset="0.153" style="stop-color:#47BBFB"/>
		<stop  offset="0.2964" style="stop-color:#3CB7FB"/>
		<stop  offset="0.4361" style="stop-color:#29B0FB"/>
		<stop  offset="0.5726" style="stop-color:#0FA6FB"/>
		<stop  offset="0.6341" style="stop-color:#00A1FB"/>
		<stop  offset="0.7791" style="stop-color:#009AF0"/>
		<stop  offset="1" style="stop-color:#0091E3"/>
	</linearGradient>
	<rect x="89.1" y="256.8" class="st11" width="18.3" height="18.3"/>
	<linearGradient id="SVGID_13_" gradientUnits="userSpaceOnUse" x1="121.1241" y1="319.3329" x2="139.4572" y2="319.3329">
		<stop  offset="0" style="stop-color:#4BBCFB"/>
		<stop  offset="0.153" style="stop-color:#47BBFB"/>
		<stop  offset="0.2964" style="stop-color:#3CB7FB"/>
		<stop  offset="0.4361" style="stop-color:#29B0FB"/>
		<stop  offset="0.5726" style="stop-color:#0FA6FB"/>
		<stop  offset="0.6341" style="stop-color:#00A1FB"/>
		<stop  offset="0.7791" style="stop-color:#009AF0"/>
		<stop  offset="1" style="stop-color:#0091E3"/>
	</linearGradient>
	<rect x="121.1" y="310.2" class="st12" width="18.3" height="18.3"/>
</g>
</svg>
