<?xml version="1.0" encoding="utf-8"?>
<!-- Generator: Adobe Illustrator 23.0.0, SVG Export Plug-In . SVG Version: 6.00 Build 0)  -->
<svg version="1.1" id="Camada_1" xmlns="http://www.w3.org/2000/svg" xmlns:xlink="http://www.w3.org/1999/xlink" x="0px" y="0px"
	 viewBox="0 0 512 512" style="enable-background:new 0 0 512 512;" xml:space="preserve">
<style type="text/css">
	.st0{fill:url(#SVGID_1_);}
	.st1{fill:url(#SVGID_2_);}
	.st2{fill:url(#SVGID_3_);}
	.st3{fill:url(#SVGID_4_);}
	.st4{fill:url(#SVGID_5_);}
	.st5{fill:url(#SVGID_6_);}
	.st6{fill:url(#SVGID_7_);}
	.st7{fill:url(#SVGID_8_);}
	.st8{fill:url(#SVGID_9_);}
	.st9{fill:url(#SVGID_10_);}
	.st10{fill:url(#SVGID_11_);}
	.st11{fill:url(#SVGID_12_);}
	.st12{fill:url(#SVGID_13_);}
	.st13{fill:url(#SVGID_14_);}
	.st14{fill:url(#SVGID_15_);}
	.st15{fill:url(#SVGID_16_);}
	.st16{fill:url(#SVGID_17_);}
	.st17{fill:url(#SVGID_18_);}
	.st18{fill:url(#SVGID_19_);}
	.st19{fill:url(#SVGID_20_);}
	.st20{fill:url(#SVGID_21_);}
	.st21{fill:url(#SVGID_22_);}
</style>
<g>
	<linearGradient id="SVGID_1_" gradientUnits="userSpaceOnUse" x1="163.8594" y1="491.043" x2="178.8281" y2="491.043">
		<stop  offset="0" style="stop-color:#00A1FB"/>
		<stop  offset="0.59" style="stop-color:#0091E3"/>
		<stop  offset="1" style="stop-color:#0080C8"/>
	</linearGradient>
	<rect x="163.9" y="470.6" class="st0" width="15" height="40.9"/>
	<linearGradient id="SVGID_2_" gradientUnits="userSpaceOnUse" x1="333.1719" y1="491.043" x2="348.1406" y2="491.043">
		<stop  offset="0" style="stop-color:#00A1FB"/>
		<stop  offset="0.59" style="stop-color:#0091E3"/>
		<stop  offset="1" style="stop-color:#0080C8"/>
	</linearGradient>
	<rect x="333.2" y="470.6" class="st1" width="15" height="40.9"/>
	<linearGradient id="SVGID_3_" gradientUnits="userSpaceOnUse" x1="0" y1="355.8613" x2="512" y2="355.8613">
		<stop  offset="0" style="stop-color:#00A1FB"/>
		<stop  offset="0.59" style="stop-color:#0091E3"/>
		<stop  offset="1" style="stop-color:#0080C8"/>
	</linearGradient>
	<path class="st2" d="M463.9,348.5h-23v-13.1c14.3-9.9,23.7-26.4,23.7-45.1v-28.4c0-30.3-24.6-54.9-54.9-54.9
		c-30.3,0-54.9,24.6-54.9,54.9v28.4c0,18.7,9.4,35.2,23.7,45.1v13.1h-23c-22.9,0-42.4,16.2-47,38h-13.8v-20.8
		c18.8-12.5,31.2-33.9,31.2-58.1v-37.4c0-38.5-31.3-69.9-69.9-69.9s-69.9,31.3-69.9,69.9v37.4c0,24.2,12.4,45.6,31.2,58.1v20.8
		h-13.8c-4.7-21.8-24.1-38-47-38h-23v-13.1c14.3-9.9,23.7-26.4,23.7-45.1v-28.4c0-30.3-24.6-54.9-54.9-54.9
		c-30.3,0-54.9,24.6-54.9,54.9v28.4c0,18.7,9.4,35.2,23.7,45.1v13.1h-23C21.6,348.5,0,370.1,0,396.6v114.9h15V396.6
		c0-18.3,14.9-33.2,33.1-33.2h23.7c3.1,13.9,15.6,24.4,30.4,24.4s27.3-10.4,30.4-24.4h23.8c14.7,0,27.3,9.6,31.6,23h-3.3
		c-33.6,0-61,27.3-61,61v64.1h15v-64.1c0-25.4,20.6-46,46-46h33.2c3.1,18.2,19,32.1,38.1,32.1s35-13.9,38.1-32.1h33.2
		c25.4,0,46,20.6,46,46v64.1h15v-64.1c0-33.6-27.3-61-61-61H324c4.3-13.4,16.9-23,31.6-23h23.8c3.1,13.9,15.6,24.4,30.4,24.4
		s27.3-10.4,30.4-24.4h23.7c18.3,0,33.1,14.9,33.1,33.2v114.9h15V396.6C512,370.1,490.4,348.5,463.9,348.5z M102.3,221.9
		c21.8,0,39.5,17.5,39.9,39.3c-5.2-7.2-13.5-11.6-22.6-11.6H84.9c-9,0-17.4,4.4-22.6,11.6C62.8,239.4,80.5,221.9,102.3,221.9z
		 M118.5,356.6c0,8.9-7.3,16.2-16.2,16.2s-16.2-7.3-16.2-16.2v-13.9c5.1,1.6,10.6,2.4,16.2,2.4s11.1-0.9,16.2-2.4V356.6z
		 M102.3,330.2c-21.4,0-38.9-16.9-39.9-38.1l11.2-20.8c2.2-4.2,6.6-6.7,11.3-6.7h34.7c4.7,0,9,2.6,11.3,6.7l11.2,20.8
		C141.2,313.2,123.7,330.2,102.3,330.2z M201.1,270.1c0-30.3,24.6-54.9,54.9-54.9s54.9,24.6,54.9,54.9v7.9l-2-3.6
		c-6-11.1-17.5-17.9-30.1-17.9h-45.7c-12.6,0-24.1,6.9-30.1,17.9l-2,3.6V270.1z M279.7,394.8c0,13.1-10.6,23.7-23.7,23.7
		s-23.7-10.6-23.7-23.7v-21.6c7.4,2.7,15.4,4.1,23.7,4.1s16.3-1.5,23.7-4.1V394.8z M256,362.4c-29.7,0-53.9-23.7-54.8-53.1
		l15.1-27.9c3.4-6.2,9.9-10.1,16.9-10.1h45.7c7.1,0,13.6,3.9,16.9,10.1l15.1,27.9C309.9,338.8,285.7,362.4,256,362.4z M409.7,221.9
		c21.8,0,39.5,17.5,39.9,39.3c-5.2-7.2-13.5-11.6-22.6-11.6h-34.7c-9,0-17.4,4.4-22.6,11.6C370.2,239.4,387.9,221.9,409.7,221.9z
		 M425.9,356.6c0,8.9-7.3,16.2-16.2,16.2s-16.2-7.3-16.2-16.2v-13.9c5.1,1.6,10.6,2.4,16.2,2.4s11.1-0.9,16.2-2.4V356.6z
		 M409.7,330.2c-21.4,0-38.9-16.9-39.9-38.1l11.2-20.8c2.2-4.2,6.6-6.7,11.3-6.7h34.7c4.7,0,9,2.6,11.3,6.7l11.2,20.8
		C448.6,313.2,431.1,330.2,409.7,330.2z"/>
	<linearGradient id="SVGID_4_" gradientUnits="userSpaceOnUse" x1="466.5547" y1="462.8477" x2="481.5234" y2="462.8477">
		<stop  offset="0" style="stop-color:#00A1FB"/>
		<stop  offset="0.59" style="stop-color:#0091E3"/>
		<stop  offset="1" style="stop-color:#0080C8"/>
	</linearGradient>
	<rect x="466.6" y="414.2" class="st3" width="15" height="97.3"/>
	<linearGradient id="SVGID_5_" gradientUnits="userSpaceOnUse" x1="30.4766" y1="462.8477" x2="45.4453" y2="462.8477">
		<stop  offset="0" style="stop-color:#00A1FB"/>
		<stop  offset="0.59" style="stop-color:#0091E3"/>
		<stop  offset="1" style="stop-color:#0080C8"/>
	</linearGradient>
	<rect x="30.5" y="414.2" class="st4" width="15" height="97.3"/>
	<linearGradient id="SVGID_6_" gradientUnits="userSpaceOnUse" x1="1" y1="82.8125" x2="135.7344" y2="82.8125">
		<stop  offset="0" style="stop-color:#00A1FB"/>
		<stop  offset="0.59" style="stop-color:#0091E3"/>
		<stop  offset="1" style="stop-color:#0080C8"/>
	</linearGradient>
	<path class="st5" d="M68.4,164.6l24.4-43.9h43V1H1v119.8h43L68.4,164.6z M16,16h104.8v89.8H83.9l-15.6,28l-15.6-28H16V16z"/>
	<linearGradient id="SVGID_7_" gradientUnits="userSpaceOnUse" x1="377.2617" y1="82.8125" x2="512" y2="82.8125">
		<stop  offset="0" style="stop-color:#00A1FB"/>
		<stop  offset="0.59" style="stop-color:#0091E3"/>
		<stop  offset="1" style="stop-color:#0080C8"/>
	</linearGradient>
	<path class="st6" d="M377.3,1v119.8h43l24.4,43.9l24.4-43.9h43V1H377.3z M497,105.8h-36.8l-15.6,28l-15.6-28h-36.8V16H497V105.8z"
		/>
	<linearGradient id="SVGID_8_" gradientUnits="userSpaceOnUse" x1="149.707" y1="82.8125" x2="363.2891" y2="82.8125">
		<stop  offset="0" style="stop-color:#00A1FB"/>
		<stop  offset="0.59" style="stop-color:#0091E3"/>
		<stop  offset="1" style="stop-color:#0080C8"/>
	</linearGradient>
	<path class="st7" d="M256.5,164.6l24.4-43.9h82.4V1H149.7v119.8h82.4L256.5,164.6z M164.7,16h183.6v89.8h-76.3l-15.6,28l-15.6-28
		h-76.3V16z"/>
	<linearGradient id="SVGID_9_" gradientUnits="userSpaceOnUse" x1="63.375" y1="48.4082" x2="103.2969" y2="48.4082">
		<stop  offset="0" style="stop-color:#00A1FB"/>
		<stop  offset="0.59" style="stop-color:#0091E3"/>
		<stop  offset="1" style="stop-color:#0080C8"/>
	</linearGradient>
	<rect x="63.4" y="40.9" class="st8" width="39.9" height="15"/>
	<linearGradient id="SVGID_10_" gradientUnits="userSpaceOnUse" x1="33.4336" y1="48.4082" x2="48.4063" y2="48.4082">
		<stop  offset="0" style="stop-color:#00A1FB"/>
		<stop  offset="0.59" style="stop-color:#0091E3"/>
		<stop  offset="1" style="stop-color:#0080C8"/>
	</linearGradient>
	<rect x="33.4" y="40.9" class="st9" width="15" height="15"/>
	<linearGradient id="SVGID_11_" gradientUnits="userSpaceOnUse" x1="33.4336" y1="78.3496" x2="73.3555" y2="78.3496">
		<stop  offset="0" style="stop-color:#00A1FB"/>
		<stop  offset="0.59" style="stop-color:#0091E3"/>
		<stop  offset="1" style="stop-color:#0080C8"/>
	</linearGradient>
	<rect x="33.4" y="70.9" class="st10" width="39.9" height="15"/>
	<linearGradient id="SVGID_12_" gradientUnits="userSpaceOnUse" x1="88.3281" y1="78.3496" x2="103.2969" y2="78.3496">
		<stop  offset="0" style="stop-color:#00A1FB"/>
		<stop  offset="0.59" style="stop-color:#0091E3"/>
		<stop  offset="1" style="stop-color:#0080C8"/>
	</linearGradient>
	<rect x="88.3" y="70.9" class="st11" width="15" height="15"/>
	<linearGradient id="SVGID_13_" gradientUnits="userSpaceOnUse" x1="439.6406" y1="48.4082" x2="479.5625" y2="48.4082">
		<stop  offset="0" style="stop-color:#00A1FB"/>
		<stop  offset="0.59" style="stop-color:#0091E3"/>
		<stop  offset="1" style="stop-color:#0080C8"/>
	</linearGradient>
	<rect x="439.6" y="40.9" class="st12" width="39.9" height="15"/>
	<linearGradient id="SVGID_14_" gradientUnits="userSpaceOnUse" x1="409.6992" y1="48.4082" x2="424.6719" y2="48.4082">
		<stop  offset="0" style="stop-color:#00A1FB"/>
		<stop  offset="0.59" style="stop-color:#0091E3"/>
		<stop  offset="1" style="stop-color:#0080C8"/>
	</linearGradient>
	<rect x="409.7" y="40.9" class="st13" width="15" height="15"/>
	<linearGradient id="SVGID_15_" gradientUnits="userSpaceOnUse" x1="409.6992" y1="78.3496" x2="449.6211" y2="78.3496">
		<stop  offset="0" style="stop-color:#00A1FB"/>
		<stop  offset="0.59" style="stop-color:#0091E3"/>
		<stop  offset="1" style="stop-color:#0080C8"/>
	</linearGradient>
	<rect x="409.7" y="70.9" class="st14" width="39.9" height="15"/>
	<linearGradient id="SVGID_16_" gradientUnits="userSpaceOnUse" x1="464.5938" y1="78.3496" x2="479.5625" y2="78.3496">
		<stop  offset="0" style="stop-color:#00A1FB"/>
		<stop  offset="0.59" style="stop-color:#0091E3"/>
		<stop  offset="1" style="stop-color:#0080C8"/>
	</linearGradient>
	<rect x="464.6" y="70.9" class="st15" width="15" height="15"/>
	<linearGradient id="SVGID_17_" gradientUnits="userSpaceOnUse" x1="271.4688" y1="43.418" x2="286.4414" y2="43.418">
		<stop  offset="0" style="stop-color:#00A1FB"/>
		<stop  offset="0.59" style="stop-color:#0091E3"/>
		<stop  offset="1" style="stop-color:#0080C8"/>
	</linearGradient>
	<rect x="271.5" y="35.9" class="st16" width="15" height="15"/>
	<linearGradient id="SVGID_18_" gradientUnits="userSpaceOnUse" x1="301.4102" y1="43.418" x2="326.3633" y2="43.418">
		<stop  offset="0" style="stop-color:#00A1FB"/>
		<stop  offset="0.59" style="stop-color:#0091E3"/>
		<stop  offset="1" style="stop-color:#0080C8"/>
	</linearGradient>
	<rect x="301.4" y="35.9" class="st17" width="25" height="15"/>
	<linearGradient id="SVGID_19_" gradientUnits="userSpaceOnUse" x1="186.6367" y1="43.418" x2="256.5" y2="43.418">
		<stop  offset="0" style="stop-color:#00A1FB"/>
		<stop  offset="0.59" style="stop-color:#0091E3"/>
		<stop  offset="1" style="stop-color:#0080C8"/>
	</linearGradient>
	<rect x="186.6" y="35.9" class="st18" width="69.9" height="15"/>
	<linearGradient id="SVGID_20_" gradientUnits="userSpaceOnUse" x1="311.3906" y1="74.3574" x2="326.3633" y2="74.3574">
		<stop  offset="0" style="stop-color:#00A1FB"/>
		<stop  offset="0.59" style="stop-color:#0091E3"/>
		<stop  offset="1" style="stop-color:#0080C8"/>
	</linearGradient>
	<rect x="311.4" y="66.9" class="st19" width="15" height="15"/>
	<linearGradient id="SVGID_21_" gradientUnits="userSpaceOnUse" x1="186.6367" y1="74.3574" x2="226.5586" y2="74.3574">
		<stop  offset="0" style="stop-color:#00A1FB"/>
		<stop  offset="0.59" style="stop-color:#0091E3"/>
		<stop  offset="1" style="stop-color:#0080C8"/>
	</linearGradient>
	<rect x="186.6" y="66.9" class="st20" width="39.9" height="15"/>
	<linearGradient id="SVGID_22_" gradientUnits="userSpaceOnUse" x1="241.5273" y1="74.3574" x2="296.4219" y2="74.3574">
		<stop  offset="0" style="stop-color:#00A1FB"/>
		<stop  offset="0.59" style="stop-color:#0091E3"/>
		<stop  offset="1" style="stop-color:#0080C8"/>
	</linearGradient>
	<rect x="241.5" y="66.9" class="st21" width="54.9" height="15"/>
</g>
</svg>
