<?xml version="1.0" encoding="utf-8"?>
<!-- Generator: Adobe Illustrator 23.0.0, SVG Export Plug-In . SVG Version: 6.00 Build 0)  -->
<svg version="1.1" id="Capa_1" xmlns="http://www.w3.org/2000/svg" xmlns:xlink="http://www.w3.org/1999/xlink" x="0px" y="0px"
	 viewBox="0 0 496 496" style="enable-background:new 0 0 496 496;" xml:space="preserve">
<style type="text/css">
	.st0{fill:url(#SVGID_1_);}
	.st1{fill:url(#SVGID_2_);}
	.st2{fill:url(#SVGID_3_);}
	.st3{fill:url(#SVGID_4_);}
	.st4{fill:url(#SVGID_5_);}
	.st5{fill:url(#SVGID_6_);}
	.st6{fill:url(#SVGID_7_);}
	.st7{fill:url(#SVGID_8_);}
	.st8{fill:url(#SVGID_9_);}
	.st9{fill:url(#SVGID_10_);}
</style>
<g>
	<g>
		<linearGradient id="SVGID_1_" gradientUnits="userSpaceOnUse" x1="256" y1="456" x2="352" y2="456">
			<stop  offset="0" style="stop-color:#00A1FB"/>
			<stop  offset="0.59" style="stop-color:#0091E3"/>
			<stop  offset="1" style="stop-color:#0080C8"/>
		</linearGradient>
		<rect x="256" y="448" class="st0" width="96" height="16"/>
	</g>
</g>
<g>
	<g>
		<linearGradient id="SVGID_2_" gradientUnits="userSpaceOnUse" x1="192" y1="264" x2="208" y2="264">
			<stop  offset="0" style="stop-color:#00A1FB"/>
			<stop  offset="0.59" style="stop-color:#0091E3"/>
			<stop  offset="1" style="stop-color:#0080C8"/>
		</linearGradient>
		<rect x="192" y="144" class="st1" width="16" height="240"/>
	</g>
</g>
<g>
	<g>
		<linearGradient id="SVGID_3_" gradientUnits="userSpaceOnUse" x1="0" y1="248" x2="496" y2="248">
			<stop  offset="0" style="stop-color:#00A1FB"/>
			<stop  offset="0.59" style="stop-color:#0091E3"/>
			<stop  offset="1" style="stop-color:#0080C8"/>
		</linearGradient>
		<path class="st2" d="M480,160h-32V40c0-22.1-17.9-40-40-40H200c-22.1,0-40,17.9-40,40v40H32v88H0v240h160v48c0,22.1,17.9,40,40,40
			h208c22.1,0,40-17.9,40-40V336h32c8.8,0,16-7.2,16-16V176C496,167.2,488.8,160,480,160z M160,281.5c-2.5-0.9-5.2-1.5-8-1.5h-16
			c-4.4,0-8-3.6-8-8s3.6-8,8-8h16c4.4,0,8,3.6,8,8V281.5z M160,249.5c-2.5-0.9-5.2-1.5-8-1.5v-16h-16v16c-13.2,0-24,10.8-24,24
			s10.8,24,24,24h16c4.4,0,8,3.6,8,8s-3.6,8-8,8h-16c-4.4,0-8-3.6-8-8h-16c0,13.2,10.8,24,24,24v16h16v-16c2.8,0,5.5-0.6,8-1.5V358
			c-5.2,1.2-10.6,2-16,2c-39.7,0-72-32.3-72-72s32.3-72,72-72c5.4,0,10.8,0.8,16,2V249.5z M160,201.5c-5.3-1-10.6-1.5-16-1.5
			c-48.5,0-88,39.5-88,88s39.5,88,88,88c5.4,0,10.7-0.5,16-1.5V392H16V184h144V201.5z M160,168H48V96h112V168z M480,176v16H256v-16
			H480z M480,208v16H256v-16H480z M176,40c0-13.2,10.8-24,24-24h208c13.2,0,24,10.8,24,24v24H176V40z M432,456c0,13.2-10.8,24-24,24
			H200c-13.2,0-24-10.8-24-24v-24h256V456z M432,416H176V80h256v80H256c-8.8,0-16,7.2-16,16v144c0,8.8,7.2,16,16,16h176V416z
			 M256,320v-80h224l0,80H256z"/>
	</g>
</g>
<g>
	<g>
		<linearGradient id="SVGID_4_" gradientUnits="userSpaceOnUse" x1="272" y1="296" x2="312" y2="296">
			<stop  offset="0" style="stop-color:#00A1FB"/>
			<stop  offset="0.59" style="stop-color:#0091E3"/>
			<stop  offset="1" style="stop-color:#0080C8"/>
		</linearGradient>
		<rect x="272" y="288" class="st3" width="40" height="16"/>
	</g>
</g>
<g>
	<g>
		<linearGradient id="SVGID_5_" gradientUnits="userSpaceOnUse" x1="32" y1="216" x2="64" y2="216">
			<stop  offset="0" style="stop-color:#00A1FB"/>
			<stop  offset="0.59" style="stop-color:#0091E3"/>
			<stop  offset="1" style="stop-color:#0080C8"/>
		</linearGradient>
		<polygon class="st4" points="32,200 32,232 48,232 48,216 64,216 64,200 		"/>
	</g>
</g>
<g>
	<g>
		<linearGradient id="SVGID_6_" gradientUnits="userSpaceOnUse" x1="64" y1="128" x2="96" y2="128">
			<stop  offset="0" style="stop-color:#00A1FB"/>
			<stop  offset="0.59" style="stop-color:#0091E3"/>
			<stop  offset="1" style="stop-color:#0080C8"/>
		</linearGradient>
		<polygon class="st5" points="64,112 64,144 80,144 80,128 96,128 96,112 		"/>
	</g>
</g>
<g>
	<g>
		<linearGradient id="SVGID_7_" gradientUnits="userSpaceOnUse" x1="32" y1="360" x2="64" y2="360">
			<stop  offset="0" style="stop-color:#00A1FB"/>
			<stop  offset="0.59" style="stop-color:#0091E3"/>
			<stop  offset="1" style="stop-color:#0080C8"/>
		</linearGradient>
		<polygon class="st6" points="48,360 48,344 32,344 32,376 64,376 64,360 		"/>
	</g>
</g>
<g>
	<g>
		<linearGradient id="SVGID_8_" gradientUnits="userSpaceOnUse" x1="448" y1="296" x2="464" y2="296">
			<stop  offset="0" style="stop-color:#00A1FB"/>
			<stop  offset="0.59" style="stop-color:#0091E3"/>
			<stop  offset="1" style="stop-color:#0080C8"/>
		</linearGradient>
		<rect x="448" y="288" class="st7" width="16" height="16"/>
	</g>
</g>
<g>
	<g>
		<linearGradient id="SVGID_9_" gradientUnits="userSpaceOnUse" x1="416" y1="296" x2="432" y2="296">
			<stop  offset="0" style="stop-color:#00A1FB"/>
			<stop  offset="0.59" style="stop-color:#0091E3"/>
			<stop  offset="1" style="stop-color:#0080C8"/>
		</linearGradient>
		<rect x="416" y="288" class="st8" width="16" height="16"/>
	</g>
</g>
<g>
	<g>
		<linearGradient id="SVGID_10_" gradientUnits="userSpaceOnUse" x1="192" y1="120" x2="208" y2="120">
			<stop  offset="0" style="stop-color:#00A1FB"/>
			<stop  offset="0.59" style="stop-color:#0091E3"/>
			<stop  offset="1" style="stop-color:#0080C8"/>
		</linearGradient>
		<rect x="192" y="112" class="st9" width="16" height="16"/>
	</g>
</g>
</svg>
