<svg id="twitter" xmlns="http://www.w3.org/2000/svg" width="184.972" height="184.972" viewBox="0 0 184.972 184.972">
  <path id="Path_7" data-name="Path 7" d="M92.486,0A92.486,92.486,0,1,1,0,92.486,92.486,92.486,0,0,1,92.486,0Z" transform="translate(0 0)" fill="#0091e3"/>
  <g id="Group_41" data-name="Group 41" transform="translate(41.384 56.1)">
    <path id="Path_1" data-name="Path 1" d="M132.855,44.395a44.108,44.108,0,0,1-12.7,3.477,22.167,22.167,0,0,0,9.722-12.228,44.254,44.254,0,0,1-14.038,5.363A22.125,22.125,0,0,0,78.17,61.173,62.754,62.754,0,0,1,32.6,38.072a22.131,22.131,0,0,0,6.84,29.516A21.951,21.951,0,0,1,29.431,64.82c0,.094,0,.188,0,.28A22.12,22.12,0,0,0,47.164,86.775a22.193,22.193,0,0,1-9.983.382A22.13,22.13,0,0,0,57.832,102.51,44.625,44.625,0,0,1,25.1,111.663,62.531,62.531,0,0,0,58.988,121.6c40.662,0,62.9-33.685,62.9-62.9,0-.958-.021-1.912-.064-2.859a44.828,44.828,0,0,0,11.033-11.442Z" transform="translate(-25.103 -34.028)" fill="#fff"/>
  </g>
</svg>
