<?xml version="1.0" encoding="utf-8"?>
<!-- Generator: Adobe Illustrator 23.0.0, SVG Export Plug-In . SVG Version: 6.00 Build 0)  -->
<svg version="1.1" id="Camada_1" xmlns="http://www.w3.org/2000/svg" xmlns:xlink="http://www.w3.org/1999/xlink" x="0px" y="0px"
	 viewBox="0 0 470 470" style="enable-background:new 0 0 470 470;" xml:space="preserve">
<style type="text/css">
	.st0{fill:url(#SVGID_1_);}
	.st1{fill:url(#SVGID_2_);}
	.st2{fill:url(#SVGID_3_);}
	.st3{fill:url(#SVGID_4_);}
</style>
<g>
	<linearGradient id="SVGID_1_" gradientUnits="userSpaceOnUse" x1="65.062" y1="235" x2="404.938" y2="235">
		<stop  offset="0" style="stop-color:#4BBCFB"/>
		<stop  offset="0.153" style="stop-color:#47BBFB"/>
		<stop  offset="0.2964" style="stop-color:#3CB7FB"/>
		<stop  offset="0.4361" style="stop-color:#29B0FB"/>
		<stop  offset="0.5726" style="stop-color:#0FA6FB"/>
		<stop  offset="0.6341" style="stop-color:#00A1FB"/>
		<stop  offset="0.7791" style="stop-color:#009AF0"/>
		<stop  offset="1" style="stop-color:#0091E3"/>
	</linearGradient>
	<path class="st0" d="M404.9,461.9c-0.1-56-16.7-104.5-50.8-148.3c-29.4-37.8-68-67.6-105.4-96.4c-71.3-55-138.7-107-138.7-209.7
		c0-4.1-3.4-7.5-7.5-7.5h-30c-4.1,0-7.5,3.4-7.5,7.5c0,56.2,16.6,104.9,50.8,148.9c23.4,30.1,52.7,55.1,82.5,78.6
		c-27.9,22-58.4,47.7-82.5,78.6c-34.2,44-50.8,92.7-50.8,148.9c0,4.1,3.4,7.5,7.5,7.5h30c4.1,0,7.5-3.4,7.5-7.5
		c0-7.8,0.4-15.3,1.1-22.5h53.3c4.1,0,7.5-3.4,7.5-7.5s-3.4-7.5-7.5-7.5h-51.2c2.9-16.1,7.7-30.8,14.1-44.5h185.7
		c4.1,0,7.5-3.4,7.5-7.5s-3.4-7.5-7.5-7.5H135.2c9.3-15.9,20.8-30.6,34-44.5h91.6c4.1,0,7.5-3.4,7.5-7.5s-3.4-7.5-7.5-7.5h-76.4
		c15.3-14.4,32.5-28.3,50.7-42.5c66,51.3,124.9,103,124.9,199.1c0,4.1,3.4,7.5,7.5,7.5h30c4.2,0,7.5-3.4,7.5-7.5
		C404.9,462.3,404.9,462.1,404.9,461.9L404.9,461.9z M160.7,307.8c-0.3,0.3-0.6,0.6-0.9,0.9c-8.3,8.6-16,17.5-23.1,26.9
		c-8,10.8-14.9,21.8-20.6,33.3c-0.3,0.5-0.5,1-0.7,1.5c-9.3,19.1-15.3,39.2-18.3,60.6c-0.1,0.3-0.1,0.6-0.1,0.9
		c-1,7.5-1.6,15.2-1.9,23.1h-15c1.4-49.6,17-92.9,47.5-132.2c23.8-30.7,54.9-56.4,82.8-78.3c3.6,2.8,7.2,5.6,10.7,8.3
		c0.5,0.4,1,0.8,1.5,1.2C200.6,271.2,179.3,288.7,160.7,307.8L160.7,307.8z M374.8,455c-1.4-46.4-16.2-87-45-123.8
		c-26.9-34.3-62.1-61.5-99.4-90.3c-36.6-28.2-74.5-57.5-102.7-93.8C97.2,107.9,81.6,64.6,80.2,15h15c1.4,46.4,16.2,87,45,123.8
		c26.9,34.3,62.1,61.5,99.4,90.3c36.6,28.2,74.5,57.5,102.7,93.8c30.5,39.3,46.1,82.6,47.5,132.2H374.8z"/>
	<linearGradient id="SVGID_2_" gradientUnits="userSpaceOnUse" x1="149.411" y1="97.015" x2="194.411" y2="97.015">
		<stop  offset="0" style="stop-color:#4BBCFB"/>
		<stop  offset="0.153" style="stop-color:#47BBFB"/>
		<stop  offset="0.2964" style="stop-color:#3CB7FB"/>
		<stop  offset="0.4361" style="stop-color:#29B0FB"/>
		<stop  offset="0.5726" style="stop-color:#0FA6FB"/>
		<stop  offset="0.6341" style="stop-color:#00A1FB"/>
		<stop  offset="0.7791" style="stop-color:#009AF0"/>
		<stop  offset="1" style="stop-color:#0091E3"/>
	</linearGradient>
	<path class="st1" d="M156.9,89.5c-4.1,0-7.5,3.4-7.5,7.5s3.4,7.5,7.5,7.5h30c4.1,0,7.5-3.4,7.5-7.5s-3.4-7.5-7.5-7.5H156.9z"/>
	<linearGradient id="SVGID_3_" gradientUnits="userSpaceOnUse" x1="127.4001" y1="111.6355" x2="404.9181" y2="111.6355">
		<stop  offset="0" style="stop-color:#4BBCFB"/>
		<stop  offset="0.153" style="stop-color:#47BBFB"/>
		<stop  offset="0.2964" style="stop-color:#3CB7FB"/>
		<stop  offset="0.4361" style="stop-color:#29B0FB"/>
		<stop  offset="0.5726" style="stop-color:#0FA6FB"/>
		<stop  offset="0.6341" style="stop-color:#00A1FB"/>
		<stop  offset="0.7791" style="stop-color:#009AF0"/>
		<stop  offset="1" style="stop-color:#0091E3"/>
	</linearGradient>
	<path class="st2" d="M134.9,45h221.9c-2.8,16-7.5,30.7-13.9,44.5h-126c-4.1,0-7.5,3.4-7.5,7.5s3.4,7.5,7.5,7.5h118.2
		c-9.1,15.7-20.6,30.3-34,44.5h-91.8c-4.1,0-7.5,3.4-7.5,7.5s3.4,7.5,7.5,7.5h76.6c-9.7,9-20.1,18-31.3,27
		c-3.2,2.6-3.7,7.3-1.1,10.5c2.6,3.2,7.3,3.7,10.5,1.1c33.4-27,68.2-58.3,89.7-101.5c0.4-0.6,0.7-1.2,0.9-1.8
		c8.7-17.9,15.1-37.8,18.2-60.2c0.1-0.4,0.1-0.8,0.2-1.2c1-7.4,1.6-15,1.9-22.9h15c-1.4,49.6-17,92.9-47.5,132.2
		c-15.6,20.1-35.8,40-63.4,62.8c-3.2,2.6-3.7,7.4-1,10.6c1.5,1.8,3.6,2.7,5.8,2.7c1.7,0,3.4-0.6,4.8-1.7
		c28.5-23.5,49.4-44.2,65.7-65.2c34.2-44,50.8-92.7,50.8-148.9c0-4.1-3.4-7.5-7.5-7.5h-30c-4.1,0-7.5,3.4-7.5,7.5
		c0,7.8-0.4,15.3-1.1,22.5H134.9c-4.1,0-7.5,3.4-7.5,7.5S130.8,45,134.9,45L134.9,45z"/>
	<linearGradient id="SVGID_4_" gradientUnits="userSpaceOnUse" x1="187.019" y1="432.5" x2="342.582" y2="432.5">
		<stop  offset="0" style="stop-color:#4BBCFB"/>
		<stop  offset="0.153" style="stop-color:#47BBFB"/>
		<stop  offset="0.2964" style="stop-color:#3CB7FB"/>
		<stop  offset="0.4361" style="stop-color:#29B0FB"/>
		<stop  offset="0.5726" style="stop-color:#0FA6FB"/>
		<stop  offset="0.6341" style="stop-color:#00A1FB"/>
		<stop  offset="0.7791" style="stop-color:#009AF0"/>
		<stop  offset="1" style="stop-color:#0091E3"/>
	</linearGradient>
	<path class="st3" d="M335.1,425H194.5c-4.1,0-7.5,3.4-7.5,7.5s3.4,7.5,7.5,7.5h140.6c4.1,0,7.5-3.4,7.5-7.5S339.2,425,335.1,425z"
		/>
</g>
</svg>
