<?xml version="1.0" encoding="utf-8"?>
<!-- Generator: Adobe Illustrator 23.0.0, SVG Export Plug-In . SVG Version: 6.00 Build 0)  -->
<svg version="1.1" id="Layer_1" xmlns="http://www.w3.org/2000/svg" xmlns:xlink="http://www.w3.org/1999/xlink" x="0px" y="0px"
	 viewBox="0 0 512 512" style="enable-background:new 0 0 512 512;" xml:space="preserve">
<style type="text/css">
	.st0{fill:url(#SVGID_1_);}
	.st1{fill:url(#SVGID_2_);}
</style>
<g>
	<g>
		<linearGradient id="SVGID_1_" gradientUnits="userSpaceOnUse" x1="51.312" y1="255.9993" x2="460.685" y2="255.9993">
			<stop  offset="0" style="stop-color:#4BBCFB"/>
			<stop  offset="0.153" style="stop-color:#47BBFB"/>
			<stop  offset="0.2964" style="stop-color:#3CB7FB"/>
			<stop  offset="0.4361" style="stop-color:#29B0FB"/>
			<stop  offset="0.5726" style="stop-color:#0FA6FB"/>
			<stop  offset="0.6341" style="stop-color:#00A1FB"/>
			<stop  offset="0.7791" style="stop-color:#009AF0"/>
			<stop  offset="1" style="stop-color:#0091E3"/>
		</linearGradient>
		<path class="st0" d="M423.2,432.4l-8.7-25.9c-0.9-2.8-2-5.4-3.1-8.1c31.4-26.2,49.4-64.2,49.4-105.2c0-32.4-11.6-63.9-32.6-88.6
			c-18.3-21.5-42.7-36.8-69.6-43.9l33.7-53.3c1.1-1.8,1.5-3.9,1-5.9c-0.5-2-1.7-3.8-3.4-4.9L377,88.5l7.9-12.6l12.8,8.1
			c1.3,0.8,2.7,1.2,4.2,1.2c2.6,0,5.1-1.3,6.6-3.6l16.5-26.1c1.1-1.8,1.5-3.9,1-5.9s-1.7-3.8-3.4-4.9L353.6,1.2
			c-3.6-2.3-8.5-1.2-10.8,2.4l-16.5,26.1c-1.1,1.8-1.5,3.9-1,5.9c0.5,2,1.7,3.8,3.4,4.9l12.8,8.1l-7.9,12.6L320.8,53
			c-3.6-2.3-8.5-1.2-10.8,2.4L197.6,233.2l-9.5-6c-1.8-1.1-3.9-1.5-5.9-1c-2,0.5-3.8,1.7-4.9,3.4l-16.5,26.1
			c-2.3,3.6-1.2,8.5,2.4,10.8l101.1,63.9c1.3,0.8,2.7,1.2,4.2,1.2c2.6,0,5.1-1.3,6.6-3.6l16.5-26.1c2.3-3.6,1.2-8.5-2.4-10.8l-9.5-6
			l27.7-43.8c5.2-1.6,10.7-2.5,16.2-2.5c30,0,54.4,24.4,54.4,54.4c0,22-13.5,42-33.8,50.3c-6.7-1.5-13.5-2.2-20.6-2.2H163.8
			c-29.3,0-53.2,23.9-53.2,53.2c0,4.3,3.5,7.8,7.8,7.8h116c-0.5,1.4-1.1,2.8-1.5,4.2l-8.6,25.5h-131c-23.1,0-41.9,18.8-41.9,41.9
			v30.2c0,4.3,3.5,7.8,7.8,7.8h392.5c4.3,0,7.8-3.5,7.8-7.8V474C459.4,452.8,443.6,435.2,423.2,432.4z M351.8,18.6l55.7,35.2
			l-8.1,12.9l-12.8-8.1c0,0,0,0,0,0l-30.2-19.1c0,0,0,0,0,0l-12.8-8.1L351.8,18.6z M371.7,67.6l-7.9,12.6l-17-10.8l7.9-12.6
			L371.7,67.6z M266.1,313.1l-87.9-55.6l8.1-12.9l9.5,6c0,0,0,0,0,0l68.9,43.6l0,0l9.5,6L266.1,313.1z M266.5,276.8l-1.9-1.2
			l-53.9-34.1L319.1,70.4l12.8,8.1c0,0,0,0,0,0L362,97.6c0,0,0,0,0,0l12.8,8.1l-35.5,56.1c0,0,0,0,0,0l-24.5,38.7L266.5,276.8z
			 M393.6,293.2c0-38.6-31.4-70-70-70c-1.6,0-3.3,0.1-4.9,0.2l30.6-48.4l0.3-0.4c25.8,5.7,49.3,19.8,66.6,40.1
			c18.6,21.9,28.9,49.8,28.9,78.5c0,35.3-15,68.1-41.4,91.2c-0.1-0.1-0.2-0.3-0.3-0.4c-0.5-0.7-0.9-1.4-1.4-2.1
			c-0.2-0.2-0.3-0.4-0.5-0.7c-0.5-0.7-1.1-1.5-1.6-2.2c-0.1-0.1-0.2-0.2-0.3-0.3c-9.4-12.3-21.6-22-35.5-28.5
			C382.3,337.3,393.6,316.1,393.6,293.2z M310.4,358c18.8-3.1,38.6,0.6,54.9,10.6c16,9.7,28.4,25.2,34.4,42.9l6.9,20.6H240.7
			l6.9-20.6c1.6-4.6,3.5-9,5.8-13.2c0,0,0,0,0-0.1c11.8-21.3,32.5-35.9,56.1-40.1C309.8,358.1,310.1,358,310.4,358z M127.1,386.6
			c3.6-17,18.7-29.8,36.8-29.8h107.4c-11.6,7.6-21.6,17.7-29,29.8H127.1z M443.8,496.4L443.8,496.4H66.9V474
			c0-14.5,11.8-26.3,26.3-26.3h136.6h187.6c14.5,0,26.3,11.8,26.3,26.3V496.4z"/>
	</g>
</g>
<g>
	<g>
		<linearGradient id="SVGID_2_" gradientUnits="userSpaceOnUse" x1="298.578" y1="394.4555" x2="348.75" y2="394.4555">
			<stop  offset="0" style="stop-color:#4BBCFB"/>
			<stop  offset="0.153" style="stop-color:#47BBFB"/>
			<stop  offset="0.2964" style="stop-color:#3CB7FB"/>
			<stop  offset="0.4361" style="stop-color:#29B0FB"/>
			<stop  offset="0.5726" style="stop-color:#0FA6FB"/>
			<stop  offset="0.6341" style="stop-color:#00A1FB"/>
			<stop  offset="0.7791" style="stop-color:#009AF0"/>
			<stop  offset="1" style="stop-color:#0091E3"/>
		</linearGradient>
		<path class="st1" d="M323.7,369.4c-13.8,0-25.1,11.3-25.1,25.1s11.3,25.1,25.1,25.1s25.1-11.3,25.1-25.1
			C348.8,380.6,337.5,369.4,323.7,369.4z M323.7,403.9c-5.2,0-9.5-4.2-9.5-9.5c0-5.2,4.3-9.5,9.5-9.5c5.2,0,9.5,4.2,9.5,9.5
			C333.1,399.7,328.9,403.9,323.7,403.9z"/>
	</g>
</g>
</svg>
