<svg xmlns="http://www.w3.org/2000/svg" width="187.946" height="187.946" viewBox="0 0 187.946 187.946">
  <g id="Group_690" data-name="Group 690" transform="translate(2393.946 -5990.594)">
    <circle id="Ellipse_7" data-name="Ellipse 7" cx="93.973" cy="93.973" r="93.973" transform="translate(-2393.946 5990.594)" fill="#0091e3"/>
    <g id="big-youtube-logo" transform="translate(-2344.486 6028.515)">
      <path id="YouTube_2_" d="M116.561,79.591h-5.953l.027-3.482a2.827,2.827,0,0,1,2.788-2.815h.372a2.862,2.862,0,0,1,2.87,2.815Zm-22.392-7.44a2.552,2.552,0,0,0-2.738,2.285V91.279a2.8,2.8,0,0,0,5.5,0V74.436A2.574,2.574,0,0,0,94.168,72.151Zm36.366-9.43V94.783c0,7.7-6.642,14.027-14.826,14.027H54.715c-8.184,0-14.848-6.325-14.848-14.027V62.72c0-7.7,6.669-13.973,14.848-13.973h60.993C123.892,48.747,130.534,55.018,130.534,62.72ZM58.782,98.293V64.5h7.571V59.483l-20.162-.027V64.4h6.3V98.3h6.293Zm22.66-28.744h-6.3V87.561a35.339,35.339,0,0,1,0,4.411c-.53,1.383-2.816,2.87-3.718.159A33.778,33.778,0,0,1,71.4,87.72V69.548H65.1l.027,17.9c0,2.711-.054,4.783.027,5.685.132,1.646.082,3.559,1.6,4.674,2.843,2.018,8.288-.317,9.643-3.242v3.718h5.046V69.548ZM101.6,90.213V75.152c0-5.685-4.275-9.14-10.1-4.516l.027-11.158H85.21v38.6l5.155-.1.5-2.389C97.46,101.639,101.6,97.495,101.6,90.213Zm19.74-2.018-4.729.054v3.3a2.6,2.6,0,0,1-2.6,2.553h-.9a2.575,2.575,0,0,1-2.575-2.553V84.532h10.813V80.47a72.221,72.221,0,0,0-.317-7.626c-.8-5.391-8.342-6.216-12.169-3.482a6.859,6.859,0,0,0-2.657,3.559,20.3,20.3,0,0,0-.8,6.374V88.25C105.43,103.126,123.466,101,121.344,88.2ZM97.088,39.58a4.2,4.2,0,0,0,4.117,2.657,3.945,3.945,0,0,0,2.416-.8,6.088,6.088,0,0,0,1.782-2.258l-.159,2.5h7.041V11.77h-5.527V35.041a2.3,2.3,0,0,1-2.34,2.285,2.328,2.328,0,0,1-2.312-2.285V11.77h-5.74V31.931c0,2.553.054,4.275.1,5.155A10.472,10.472,0,0,0,97.088,39.58ZM75.811,22.687a24.792,24.792,0,0,1,.716-6.719,7.152,7.152,0,0,1,7.331-5.336,9.324,9.324,0,0,1,4.2.929,7.22,7.22,0,0,1,2.657,2.471,8.386,8.386,0,0,1,1.328,3.11A24.378,24.378,0,0,1,92.387,22v7.6a35.181,35.181,0,0,1-.345,6.112,8.94,8.94,0,0,1-1.356,3.613A6.368,6.368,0,0,1,87.975,41.8a7.951,7.951,0,0,1-3.826.825,10.742,10.742,0,0,1-4.04-.689,5.508,5.508,0,0,1-2.6-2.072,8.864,8.864,0,0,1-1.3-3.319,32.4,32.4,0,0,1-.4-5.926v-7.93Zm5.5,11.874a2.8,2.8,0,1,0,5.577,0V18.647a2.8,2.8,0,1,0-5.577,0ZM61.838,42.608H68.48l.027-22.927L76.319.05H69.092L64.921,14.608,60.7,0H53.523l8.315,19.686S61.838,42.608,61.838,42.608Z" transform="translate(-39.867)" fill="#fff"/>
    </g>
  </g>
</svg>
